M48
; DRILL file {KiCad (6.0.10)} date Mon Feb 13 13:40:58 2023
; FORMAT={-:-/ absolute / metric / decimal}
; #@! TF.CreationDate,2023-02-13T13:40:58+04:00
; #@! TF.GenerationSoftware,Kicad,Pcbnew,(6.0.10)
; #@! TF.FileFunction,MixedPlating,1,2
FMAT,2
METRIC
; #@! TA.AperFunction,Plated,PTH,ComponentDrill
T1C1.000
; #@! TA.AperFunction,Plated,PTH,ComponentDrill
T2C1.020
; #@! TA.AperFunction,Plated,PTH,ComponentDrill
T3C1.300
%
G90
G05
T1
X113.015Y-68.072
X113.015Y-72.39
X113.03Y-48.26
X113.03Y-53.34
X113.03Y-58.42
X113.03Y-63.5
X115.555Y-68.072
X115.555Y-72.39
X115.57Y-48.26
X115.57Y-53.34
X115.57Y-58.42
X115.57Y-63.5
X118.095Y-68.072
X118.095Y-72.39
X118.11Y-48.26
X118.11Y-53.34
X118.11Y-58.42
X118.11Y-63.5
X127.254Y-35.56
X127.254Y-40.56
X131.557Y-45.466
X131.557Y-50.8
X134.097Y-45.466
X134.097Y-50.8
X136.637Y-45.466
X136.637Y-50.8
T2
X115.467Y-29.718
X115.467Y-77.978
X118.007Y-29.718
X118.007Y-77.978
X120.547Y-29.718
X120.547Y-77.978
X123.087Y-29.718
X123.087Y-77.978
X125.627Y-29.718
X125.627Y-77.978
X128.167Y-29.718
X128.167Y-77.978
X130.707Y-77.978
X133.247Y-29.718
X133.247Y-77.978
X135.787Y-29.718
X137.307Y-77.978
X138.327Y-29.718
X139.847Y-77.978
X140.867Y-29.718
X142.387Y-77.978
X143.407Y-29.718
X144.927Y-77.978
X145.947Y-29.718
X147.467Y-77.978
X148.487Y-29.718
X150.007Y-77.978
X151.027Y-29.718
X152.547Y-77.978
X155.087Y-77.978
X157.627Y-77.978
X160.167Y-77.978
T3
X115.824Y-35.56
X115.824Y-40.64
T0
M30
