M48
; DRILL file {KiCad (6.0.9-0)} date 2022 November 27, Sunday 21:40:48
; FORMAT={-:-/ absolute / metric / decimal}
; #@! TF.CreationDate,2022-11-27T21:40:48+04:00
; #@! TF.GenerationSoftware,Kicad,Pcbnew,(6.0.9-0)
; #@! TF.FileFunction,MixedPlating,1,2
FMAT,2
METRIC
; #@! TA.AperFunction,Plated,PTH,ViaDrill
T1C0.400
; #@! TA.AperFunction,Plated,PTH,ComponentDrill
T2C0.800
; #@! TA.AperFunction,Plated,PTH,ComponentDrill
T3C1.000
%
G90
G05
T1
X110.744Y-92.964
X110.744Y-103.124
X115.316Y-103.632
X120.396Y-103.632
T2
X104.943Y-89.408
X105.039Y-80.772
X107.443Y-89.408
X110.039Y-80.772
T3
X104.948Y-92.927
X104.948Y-95.467
X104.948Y-98.007
X104.948Y-100.547
X107.488Y-92.927
X107.488Y-95.467
X107.488Y-98.007
X107.488Y-100.547
X107.573Y-109.982
X110.113Y-109.982
X112.653Y-109.982
X115.193Y-109.982
X116.713Y-61.722
X117.733Y-109.982
X119.253Y-61.722
X120.273Y-109.982
X121.793Y-61.722
X122.813Y-109.982
X124.333Y-61.722
X125.353Y-109.982
X126.873Y-61.722
X127.893Y-109.982
X129.413Y-61.722
X130.433Y-109.982
X131.953Y-61.722
X134.493Y-61.722
X134.493Y-109.982
X137.033Y-109.982
X139.573Y-61.722
X139.573Y-109.982
X142.113Y-61.722
X142.113Y-109.982
X144.653Y-61.722
X144.653Y-109.982
X147.193Y-61.722
X147.193Y-109.982
X149.733Y-61.722
X149.733Y-109.982
X152.273Y-61.722
X152.273Y-109.982
T0
M30
