%TF.GenerationSoftware,KiCad,Pcbnew,(6.0.9-0)*%
%TF.CreationDate,2022-11-25T12:00:29+04:00*%
%TF.ProjectId,KiCadPCB2,4b694361-6450-4434-9232-2e6b69636164,rev?*%
%TF.SameCoordinates,Original*%
%TF.FileFunction,Copper,L2,Bot*%
%TF.FilePolarity,Positive*%
%FSLAX46Y46*%
G04 Gerber Fmt 4.6, Leading zero omitted, Abs format (unit mm)*
G04 Created by KiCad (PCBNEW (6.0.9-0)) date 2022-11-25 12:00:29*
%MOMM*%
%LPD*%
G01*
G04 APERTURE LIST*
%TA.AperFunction,ComponentPad*%
%ADD10R,1.600000X1.600000*%
%TD*%
%TA.AperFunction,ComponentPad*%
%ADD11O,1.600000X1.600000*%
%TD*%
%TA.AperFunction,ComponentPad*%
%ADD12R,1.700000X1.700000*%
%TD*%
%TA.AperFunction,ComponentPad*%
%ADD13C,1.700000*%
%TD*%
%TA.AperFunction,ComponentPad*%
%ADD14C,1.600000*%
%TD*%
%TA.AperFunction,ViaPad*%
%ADD15C,2.000000*%
%TD*%
%TA.AperFunction,Conductor*%
%ADD16C,0.254000*%
%TD*%
G04 APERTURE END LIST*
D10*
%TO.P,A1,1,NC*%
%TO.N,unconnected-(A1-Pad1)*%
X136650000Y-66580000D03*
D11*
%TO.P,A1,2,IOREF*%
%TO.N,unconnected-(A1-Pad2)*%
X139190000Y-66580000D03*
%TO.P,A1,3,~{RESET}*%
%TO.N,unconnected-(A1-Pad3)*%
X141730000Y-66580000D03*
%TO.P,A1,4,3V3*%
%TO.N,Net-(A1-Pad4)*%
X144270000Y-66580000D03*
%TO.P,A1,5,+5V*%
%TO.N,unconnected-(A1-Pad5)*%
X146810000Y-66580000D03*
%TO.P,A1,6,GND*%
%TO.N,GND*%
X149350000Y-66580000D03*
%TO.P,A1,7,GND*%
%TO.N,unconnected-(A1-Pad7)*%
X151890000Y-66580000D03*
%TO.P,A1,8,VIN*%
%TO.N,unconnected-(A1-Pad8)*%
X154430000Y-66580000D03*
%TO.P,A1,9,A0*%
%TO.N,unconnected-(A1-Pad9)*%
X159510000Y-66580000D03*
%TO.P,A1,10,A1*%
%TO.N,unconnected-(A1-Pad10)*%
X162050000Y-66580000D03*
%TO.P,A1,11,A2*%
%TO.N,unconnected-(A1-Pad11)*%
X164590000Y-66580000D03*
%TO.P,A1,12,A3*%
%TO.N,unconnected-(A1-Pad12)*%
X167130000Y-66580000D03*
%TO.P,A1,13,A4*%
%TO.N,unconnected-(A1-Pad13)*%
X169670000Y-66580000D03*
%TO.P,A1,14,A5*%
%TO.N,unconnected-(A1-Pad14)*%
X172210000Y-66580000D03*
%TO.P,A1,15,D0/RX*%
%TO.N,unconnected-(A1-Pad15)*%
X172210000Y-114840000D03*
%TO.P,A1,16,D1/TX*%
%TO.N,unconnected-(A1-Pad16)*%
X169670000Y-114840000D03*
%TO.P,A1,17,D2/SDA*%
%TO.N,unconnected-(A1-Pad17)*%
X167130000Y-114840000D03*
%TO.P,A1,18,D3/SCL*%
%TO.N,unconnected-(A1-Pad18)*%
X164590000Y-114840000D03*
%TO.P,A1,19,D4*%
%TO.N,unconnected-(A1-Pad19)*%
X162050000Y-114840000D03*
%TO.P,A1,20,D5*%
%TO.N,unconnected-(A1-Pad20)*%
X159510000Y-114840000D03*
%TO.P,A1,21,D6*%
%TO.N,unconnected-(A1-Pad21)*%
X156970000Y-114840000D03*
%TO.P,A1,22,D7*%
%TO.N,unconnected-(A1-Pad22)*%
X154430000Y-114840000D03*
%TO.P,A1,23,D8*%
%TO.N,unconnected-(A1-Pad23)*%
X150370000Y-114840000D03*
%TO.P,A1,24,D9*%
%TO.N,Net-(A1-Pad24)*%
X147830000Y-114840000D03*
%TO.P,A1,25,D10*%
%TO.N,Net-(A1-Pad25)*%
X145290000Y-114840000D03*
%TO.P,A1,26,D11*%
%TO.N,Net-(A1-Pad26)*%
X142750000Y-114840000D03*
%TO.P,A1,27,D12*%
%TO.N,Net-(A1-Pad27)*%
X140210000Y-114840000D03*
%TO.P,A1,28,D13*%
%TO.N,Net-(A1-Pad28)*%
X137670000Y-114840000D03*
%TO.P,A1,29,GND*%
%TO.N,unconnected-(A1-Pad29)*%
X135130000Y-114840000D03*
%TO.P,A1,30,AREF*%
%TO.N,unconnected-(A1-Pad30)*%
X132590000Y-114840000D03*
%TO.P,A1,31,SDA/D2*%
%TO.N,unconnected-(A1-Pad31)*%
X130050000Y-114840000D03*
%TO.P,A1,32,SCL/D3*%
%TO.N,unconnected-(A1-Pad32)*%
X127510000Y-114840000D03*
%TD*%
D12*
%TO.P,U1,1,GND*%
%TO.N,GND*%
X126030000Y-98515000D03*
D13*
%TO.P,U1,2,VCC*%
%TO.N,Net-(A1-Pad4)*%
X123490000Y-98515000D03*
%TO.P,U1,3,CE*%
%TO.N,Net-(A1-Pad24)*%
X126030000Y-101055000D03*
%TO.P,U1,4,~{CSN}*%
%TO.N,Net-(A1-Pad25)*%
X123490000Y-101055000D03*
%TO.P,U1,5,SCK*%
%TO.N,Net-(A1-Pad28)*%
X126030000Y-103595000D03*
%TO.P,U1,6,MOSI*%
%TO.N,Net-(A1-Pad26)*%
X123490000Y-103595000D03*
%TO.P,U1,7,MISO*%
%TO.N,Net-(A1-Pad27)*%
X126030000Y-106135000D03*
%TO.P,U1,8,IRQ*%
%TO.N,unconnected-(U1-Pad8)*%
X123490000Y-106135000D03*
%TD*%
D10*
%TO.P,C2,1*%
%TO.N,Net-(A1-Pad4)*%
X123581349Y-88138000D03*
D14*
%TO.P,C2,2*%
%TO.N,GND*%
X128581349Y-88138000D03*
%TD*%
D10*
%TO.P,C1,1*%
%TO.N,Net-(A1-Pad4)*%
X123485144Y-95377000D03*
D14*
%TO.P,C1,2*%
%TO.N,GND*%
X125985144Y-95377000D03*
%TD*%
D15*
%TO.N,Net-(A1-Pad27)*%
X139700000Y-110490000D03*
X135890000Y-110490000D03*
%TD*%
D16*
%TO.N,Net-(A1-Pad27)*%
X139700000Y-110490000D02*
X140210000Y-111000000D01*
X140210000Y-111000000D02*
X140210000Y-114840000D01*
%TO.N,GND*%
X149350000Y-67820000D02*
X149350000Y-66580000D01*
X128581349Y-88138000D02*
X128581349Y-77158651D01*
X134620000Y-71120000D02*
X146050000Y-71120000D01*
X125985144Y-95377000D02*
X125985144Y-90734205D01*
X126030000Y-95421856D02*
X125985144Y-95377000D01*
X128581349Y-77158651D02*
X134620000Y-71120000D01*
X126030000Y-98515000D02*
X126030000Y-95421856D01*
X125985144Y-90734205D02*
X128581349Y-88138000D01*
X146050000Y-71120000D02*
X149350000Y-67820000D01*
%TO.N,Net-(A1-Pad4)*%
X123490000Y-98515000D02*
X123490000Y-95381856D01*
X144780000Y-67310000D02*
X144780000Y-67090000D01*
X123835349Y-95026795D02*
X123485144Y-95377000D01*
X123490000Y-95381856D02*
X123485144Y-95377000D01*
X123581349Y-88138000D02*
X123581349Y-75808651D01*
X144780000Y-67090000D02*
X144270000Y-66580000D01*
X123485144Y-95377000D02*
X123485144Y-88234205D01*
X123581349Y-75808651D02*
X130810000Y-68580000D01*
X123485144Y-88234205D02*
X123581349Y-88138000D01*
X143510000Y-68580000D02*
X144780000Y-67310000D01*
X130810000Y-68580000D02*
X143510000Y-68580000D01*
%TO.N,Net-(A1-Pad24)*%
X147830000Y-113540000D02*
X147830000Y-114840000D01*
X126030000Y-101055000D02*
X134075000Y-101055000D01*
X146050000Y-111760000D02*
X147830000Y-113540000D01*
X144780000Y-111760000D02*
X146050000Y-111760000D01*
X134075000Y-101055000D02*
X144780000Y-111760000D01*
%TO.N,Net-(A1-Pad25)*%
X120650000Y-118110000D02*
X142020000Y-118110000D01*
X142020000Y-118110000D02*
X145290000Y-114840000D01*
X123490000Y-101055000D02*
X120396000Y-104149000D01*
X120396000Y-117856000D02*
X120650000Y-118110000D01*
X120396000Y-104149000D02*
X120396000Y-117856000D01*
%TO.N,Net-(A1-Pad28)*%
X126030000Y-103595000D02*
X132805000Y-103595000D01*
X137670000Y-108460000D02*
X137670000Y-114840000D01*
X132805000Y-103595000D02*
X137670000Y-108460000D01*
%TO.N,Net-(A1-Pad26)*%
X140750000Y-116840000D02*
X142750000Y-114840000D01*
X123490000Y-103595000D02*
X121666000Y-105419000D01*
X121666000Y-105419000D02*
X121666000Y-116332000D01*
X121666000Y-116332000D02*
X122174000Y-116840000D01*
X122174000Y-116840000D02*
X140750000Y-116840000D01*
%TO.N,Net-(A1-Pad27)*%
X132805000Y-106135000D02*
X135890000Y-109220000D01*
X135890000Y-109220000D02*
X135890000Y-110490000D01*
X126030000Y-106135000D02*
X132805000Y-106135000D01*
%TD*%
%TA.AperFunction,Conductor*%
%TO.N,GND*%
G36*
X175201621Y-61742502D02*
G01*
X175248114Y-61796158D01*
X175259500Y-61848500D01*
X175259500Y-118999500D01*
X175239498Y-119067621D01*
X175185842Y-119114114D01*
X175133500Y-119125500D01*
X119506500Y-119125500D01*
X119438379Y-119105498D01*
X119391886Y-119051842D01*
X119380500Y-118999500D01*
X119380500Y-104128879D01*
X119755765Y-104128879D01*
X119756511Y-104136771D01*
X119759941Y-104173056D01*
X119760500Y-104184914D01*
X119760500Y-117776980D01*
X119759970Y-117788214D01*
X119758292Y-117795719D01*
X119758541Y-117803638D01*
X119760438Y-117864012D01*
X119760500Y-117867969D01*
X119760500Y-117895983D01*
X119760996Y-117899908D01*
X119760996Y-117899909D01*
X119761008Y-117900004D01*
X119761941Y-117911849D01*
X119763335Y-117956205D01*
X119765547Y-117963817D01*
X119769013Y-117975748D01*
X119773023Y-117995112D01*
X119775573Y-118015299D01*
X119778489Y-118022663D01*
X119778490Y-118022668D01*
X119791907Y-118056556D01*
X119795752Y-118067785D01*
X119808131Y-118110393D01*
X119812169Y-118117220D01*
X119812170Y-118117223D01*
X119818488Y-118127906D01*
X119827188Y-118145664D01*
X119831761Y-118157215D01*
X119831765Y-118157221D01*
X119834681Y-118164588D01*
X119839339Y-118170999D01*
X119839340Y-118171001D01*
X119860764Y-118200488D01*
X119867281Y-118210410D01*
X119885826Y-118241768D01*
X119885829Y-118241772D01*
X119889866Y-118248598D01*
X119904250Y-118262982D01*
X119917091Y-118278016D01*
X119929058Y-118294487D01*
X119935166Y-118299540D01*
X119963255Y-118322777D01*
X119972035Y-118330767D01*
X120144745Y-118503477D01*
X120152322Y-118511803D01*
X120156447Y-118518303D01*
X120162225Y-118523729D01*
X120162226Y-118523730D01*
X120206281Y-118565100D01*
X120209123Y-118567855D01*
X120228906Y-118587638D01*
X120232114Y-118590126D01*
X120241143Y-118597837D01*
X120273494Y-118628217D01*
X120280443Y-118632037D01*
X120291329Y-118638022D01*
X120307853Y-118648876D01*
X120323933Y-118661349D01*
X120331210Y-118664498D01*
X120364650Y-118678969D01*
X120375311Y-118684192D01*
X120407247Y-118701749D01*
X120407252Y-118701751D01*
X120414197Y-118705569D01*
X120421871Y-118707539D01*
X120421878Y-118707542D01*
X120433913Y-118710632D01*
X120452618Y-118717036D01*
X120464013Y-118721967D01*
X120471292Y-118725117D01*
X120486401Y-118727510D01*
X120515127Y-118732060D01*
X120526740Y-118734465D01*
X120569718Y-118745500D01*
X120590065Y-118745500D01*
X120609777Y-118747051D01*
X120629879Y-118750235D01*
X120637771Y-118749489D01*
X120674056Y-118746059D01*
X120685914Y-118745500D01*
X141940980Y-118745500D01*
X141952214Y-118746030D01*
X141959719Y-118747708D01*
X142028012Y-118745562D01*
X142031969Y-118745500D01*
X142059983Y-118745500D01*
X142063908Y-118745004D01*
X142063909Y-118745004D01*
X142064004Y-118744992D01*
X142075849Y-118744059D01*
X142105670Y-118743122D01*
X142112282Y-118742914D01*
X142112283Y-118742914D01*
X142120205Y-118742665D01*
X142139749Y-118736987D01*
X142159112Y-118732977D01*
X142171440Y-118731420D01*
X142171442Y-118731420D01*
X142179299Y-118730427D01*
X142186663Y-118727511D01*
X142186668Y-118727510D01*
X142220556Y-118714093D01*
X142231785Y-118710248D01*
X142248465Y-118705402D01*
X142274393Y-118697869D01*
X142281220Y-118693831D01*
X142281223Y-118693830D01*
X142291906Y-118687512D01*
X142309664Y-118678812D01*
X142321215Y-118674239D01*
X142321221Y-118674235D01*
X142328588Y-118671319D01*
X142337977Y-118664498D01*
X142364488Y-118645236D01*
X142374410Y-118638719D01*
X142405768Y-118620174D01*
X142405772Y-118620171D01*
X142412598Y-118616134D01*
X142426982Y-118601750D01*
X142442016Y-118588909D01*
X142452073Y-118581602D01*
X142458487Y-118576942D01*
X142486778Y-118542744D01*
X142494767Y-118533965D01*
X144878982Y-116149750D01*
X144941294Y-116115724D01*
X145000688Y-116117138D01*
X145056598Y-116132119D01*
X145056600Y-116132119D01*
X145061913Y-116133543D01*
X145290000Y-116153498D01*
X145518087Y-116133543D01*
X145523400Y-116132119D01*
X145523402Y-116132119D01*
X145733933Y-116075707D01*
X145733935Y-116075706D01*
X145739243Y-116074284D01*
X145744225Y-116071961D01*
X145941762Y-115979849D01*
X145941767Y-115979846D01*
X145946749Y-115977523D01*
X146051611Y-115904098D01*
X146129789Y-115849357D01*
X146129792Y-115849355D01*
X146134300Y-115846198D01*
X146296198Y-115684300D01*
X146427523Y-115496749D01*
X146429846Y-115491767D01*
X146429849Y-115491762D01*
X146445805Y-115457543D01*
X146492722Y-115404258D01*
X146560999Y-115384797D01*
X146628959Y-115405339D01*
X146674195Y-115457543D01*
X146690151Y-115491762D01*
X146690154Y-115491767D01*
X146692477Y-115496749D01*
X146823802Y-115684300D01*
X146985700Y-115846198D01*
X146990208Y-115849355D01*
X146990211Y-115849357D01*
X147068389Y-115904098D01*
X147173251Y-115977523D01*
X147178233Y-115979846D01*
X147178238Y-115979849D01*
X147375775Y-116071961D01*
X147380757Y-116074284D01*
X147386065Y-116075706D01*
X147386067Y-116075707D01*
X147596598Y-116132119D01*
X147596600Y-116132119D01*
X147601913Y-116133543D01*
X147830000Y-116153498D01*
X148058087Y-116133543D01*
X148063400Y-116132119D01*
X148063402Y-116132119D01*
X148273933Y-116075707D01*
X148273935Y-116075706D01*
X148279243Y-116074284D01*
X148284225Y-116071961D01*
X148481762Y-115979849D01*
X148481767Y-115979846D01*
X148486749Y-115977523D01*
X148591611Y-115904098D01*
X148669789Y-115849357D01*
X148669792Y-115849355D01*
X148674300Y-115846198D01*
X148836198Y-115684300D01*
X148967523Y-115496749D01*
X148969846Y-115491767D01*
X148969849Y-115491762D01*
X148985805Y-115457543D01*
X149032722Y-115404258D01*
X149100999Y-115384797D01*
X149168959Y-115405339D01*
X149214195Y-115457543D01*
X149230151Y-115491762D01*
X149230154Y-115491767D01*
X149232477Y-115496749D01*
X149363802Y-115684300D01*
X149525700Y-115846198D01*
X149530208Y-115849355D01*
X149530211Y-115849357D01*
X149608389Y-115904098D01*
X149713251Y-115977523D01*
X149718233Y-115979846D01*
X149718238Y-115979849D01*
X149915775Y-116071961D01*
X149920757Y-116074284D01*
X149926065Y-116075706D01*
X149926067Y-116075707D01*
X150136598Y-116132119D01*
X150136600Y-116132119D01*
X150141913Y-116133543D01*
X150370000Y-116153498D01*
X150598087Y-116133543D01*
X150603400Y-116132119D01*
X150603402Y-116132119D01*
X150813933Y-116075707D01*
X150813935Y-116075706D01*
X150819243Y-116074284D01*
X150824225Y-116071961D01*
X151021762Y-115979849D01*
X151021767Y-115979846D01*
X151026749Y-115977523D01*
X151131611Y-115904098D01*
X151209789Y-115849357D01*
X151209792Y-115849355D01*
X151214300Y-115846198D01*
X151376198Y-115684300D01*
X151507523Y-115496749D01*
X151509846Y-115491767D01*
X151509849Y-115491762D01*
X151601961Y-115294225D01*
X151601961Y-115294224D01*
X151604284Y-115289243D01*
X151663543Y-115068087D01*
X151683498Y-114840000D01*
X153116502Y-114840000D01*
X153136457Y-115068087D01*
X153195716Y-115289243D01*
X153198039Y-115294224D01*
X153198039Y-115294225D01*
X153290151Y-115491762D01*
X153290154Y-115491767D01*
X153292477Y-115496749D01*
X153423802Y-115684300D01*
X153585700Y-115846198D01*
X153590208Y-115849355D01*
X153590211Y-115849357D01*
X153668389Y-115904098D01*
X153773251Y-115977523D01*
X153778233Y-115979846D01*
X153778238Y-115979849D01*
X153975775Y-116071961D01*
X153980757Y-116074284D01*
X153986065Y-116075706D01*
X153986067Y-116075707D01*
X154196598Y-116132119D01*
X154196600Y-116132119D01*
X154201913Y-116133543D01*
X154430000Y-116153498D01*
X154658087Y-116133543D01*
X154663400Y-116132119D01*
X154663402Y-116132119D01*
X154873933Y-116075707D01*
X154873935Y-116075706D01*
X154879243Y-116074284D01*
X154884225Y-116071961D01*
X155081762Y-115979849D01*
X155081767Y-115979846D01*
X155086749Y-115977523D01*
X155191611Y-115904098D01*
X155269789Y-115849357D01*
X155269792Y-115849355D01*
X155274300Y-115846198D01*
X155436198Y-115684300D01*
X155567523Y-115496749D01*
X155569846Y-115491767D01*
X155569849Y-115491762D01*
X155585805Y-115457543D01*
X155632722Y-115404258D01*
X155700999Y-115384797D01*
X155768959Y-115405339D01*
X155814195Y-115457543D01*
X155830151Y-115491762D01*
X155830154Y-115491767D01*
X155832477Y-115496749D01*
X155963802Y-115684300D01*
X156125700Y-115846198D01*
X156130208Y-115849355D01*
X156130211Y-115849357D01*
X156208389Y-115904098D01*
X156313251Y-115977523D01*
X156318233Y-115979846D01*
X156318238Y-115979849D01*
X156515775Y-116071961D01*
X156520757Y-116074284D01*
X156526065Y-116075706D01*
X156526067Y-116075707D01*
X156736598Y-116132119D01*
X156736600Y-116132119D01*
X156741913Y-116133543D01*
X156970000Y-116153498D01*
X157198087Y-116133543D01*
X157203400Y-116132119D01*
X157203402Y-116132119D01*
X157413933Y-116075707D01*
X157413935Y-116075706D01*
X157419243Y-116074284D01*
X157424225Y-116071961D01*
X157621762Y-115979849D01*
X157621767Y-115979846D01*
X157626749Y-115977523D01*
X157731611Y-115904098D01*
X157809789Y-115849357D01*
X157809792Y-115849355D01*
X157814300Y-115846198D01*
X157976198Y-115684300D01*
X158107523Y-115496749D01*
X158109846Y-115491767D01*
X158109849Y-115491762D01*
X158125805Y-115457543D01*
X158172722Y-115404258D01*
X158240999Y-115384797D01*
X158308959Y-115405339D01*
X158354195Y-115457543D01*
X158370151Y-115491762D01*
X158370154Y-115491767D01*
X158372477Y-115496749D01*
X158503802Y-115684300D01*
X158665700Y-115846198D01*
X158670208Y-115849355D01*
X158670211Y-115849357D01*
X158748389Y-115904098D01*
X158853251Y-115977523D01*
X158858233Y-115979846D01*
X158858238Y-115979849D01*
X159055775Y-116071961D01*
X159060757Y-116074284D01*
X159066065Y-116075706D01*
X159066067Y-116075707D01*
X159276598Y-116132119D01*
X159276600Y-116132119D01*
X159281913Y-116133543D01*
X159510000Y-116153498D01*
X159738087Y-116133543D01*
X159743400Y-116132119D01*
X159743402Y-116132119D01*
X159953933Y-116075707D01*
X159953935Y-116075706D01*
X159959243Y-116074284D01*
X159964225Y-116071961D01*
X160161762Y-115979849D01*
X160161767Y-115979846D01*
X160166749Y-115977523D01*
X160271611Y-115904098D01*
X160349789Y-115849357D01*
X160349792Y-115849355D01*
X160354300Y-115846198D01*
X160516198Y-115684300D01*
X160647523Y-115496749D01*
X160649846Y-115491767D01*
X160649849Y-115491762D01*
X160665805Y-115457543D01*
X160712722Y-115404258D01*
X160780999Y-115384797D01*
X160848959Y-115405339D01*
X160894195Y-115457543D01*
X160910151Y-115491762D01*
X160910154Y-115491767D01*
X160912477Y-115496749D01*
X161043802Y-115684300D01*
X161205700Y-115846198D01*
X161210208Y-115849355D01*
X161210211Y-115849357D01*
X161288389Y-115904098D01*
X161393251Y-115977523D01*
X161398233Y-115979846D01*
X161398238Y-115979849D01*
X161595775Y-116071961D01*
X161600757Y-116074284D01*
X161606065Y-116075706D01*
X161606067Y-116075707D01*
X161816598Y-116132119D01*
X161816600Y-116132119D01*
X161821913Y-116133543D01*
X162050000Y-116153498D01*
X162278087Y-116133543D01*
X162283400Y-116132119D01*
X162283402Y-116132119D01*
X162493933Y-116075707D01*
X162493935Y-116075706D01*
X162499243Y-116074284D01*
X162504225Y-116071961D01*
X162701762Y-115979849D01*
X162701767Y-115979846D01*
X162706749Y-115977523D01*
X162811611Y-115904098D01*
X162889789Y-115849357D01*
X162889792Y-115849355D01*
X162894300Y-115846198D01*
X163056198Y-115684300D01*
X163187523Y-115496749D01*
X163189846Y-115491767D01*
X163189849Y-115491762D01*
X163205805Y-115457543D01*
X163252722Y-115404258D01*
X163320999Y-115384797D01*
X163388959Y-115405339D01*
X163434195Y-115457543D01*
X163450151Y-115491762D01*
X163450154Y-115491767D01*
X163452477Y-115496749D01*
X163583802Y-115684300D01*
X163745700Y-115846198D01*
X163750208Y-115849355D01*
X163750211Y-115849357D01*
X163828389Y-115904098D01*
X163933251Y-115977523D01*
X163938233Y-115979846D01*
X163938238Y-115979849D01*
X164135775Y-116071961D01*
X164140757Y-116074284D01*
X164146065Y-116075706D01*
X164146067Y-116075707D01*
X164356598Y-116132119D01*
X164356600Y-116132119D01*
X164361913Y-116133543D01*
X164590000Y-116153498D01*
X164818087Y-116133543D01*
X164823400Y-116132119D01*
X164823402Y-116132119D01*
X165033933Y-116075707D01*
X165033935Y-116075706D01*
X165039243Y-116074284D01*
X165044225Y-116071961D01*
X165241762Y-115979849D01*
X165241767Y-115979846D01*
X165246749Y-115977523D01*
X165351611Y-115904098D01*
X165429789Y-115849357D01*
X165429792Y-115849355D01*
X165434300Y-115846198D01*
X165596198Y-115684300D01*
X165727523Y-115496749D01*
X165729846Y-115491767D01*
X165729849Y-115491762D01*
X165745805Y-115457543D01*
X165792722Y-115404258D01*
X165860999Y-115384797D01*
X165928959Y-115405339D01*
X165974195Y-115457543D01*
X165990151Y-115491762D01*
X165990154Y-115491767D01*
X165992477Y-115496749D01*
X166123802Y-115684300D01*
X166285700Y-115846198D01*
X166290208Y-115849355D01*
X166290211Y-115849357D01*
X166368389Y-115904098D01*
X166473251Y-115977523D01*
X166478233Y-115979846D01*
X166478238Y-115979849D01*
X166675775Y-116071961D01*
X166680757Y-116074284D01*
X166686065Y-116075706D01*
X166686067Y-116075707D01*
X166896598Y-116132119D01*
X166896600Y-116132119D01*
X166901913Y-116133543D01*
X167130000Y-116153498D01*
X167358087Y-116133543D01*
X167363400Y-116132119D01*
X167363402Y-116132119D01*
X167573933Y-116075707D01*
X167573935Y-116075706D01*
X167579243Y-116074284D01*
X167584225Y-116071961D01*
X167781762Y-115979849D01*
X167781767Y-115979846D01*
X167786749Y-115977523D01*
X167891611Y-115904098D01*
X167969789Y-115849357D01*
X167969792Y-115849355D01*
X167974300Y-115846198D01*
X168136198Y-115684300D01*
X168267523Y-115496749D01*
X168269846Y-115491767D01*
X168269849Y-115491762D01*
X168285805Y-115457543D01*
X168332722Y-115404258D01*
X168400999Y-115384797D01*
X168468959Y-115405339D01*
X168514195Y-115457543D01*
X168530151Y-115491762D01*
X168530154Y-115491767D01*
X168532477Y-115496749D01*
X168663802Y-115684300D01*
X168825700Y-115846198D01*
X168830208Y-115849355D01*
X168830211Y-115849357D01*
X168908389Y-115904098D01*
X169013251Y-115977523D01*
X169018233Y-115979846D01*
X169018238Y-115979849D01*
X169215775Y-116071961D01*
X169220757Y-116074284D01*
X169226065Y-116075706D01*
X169226067Y-116075707D01*
X169436598Y-116132119D01*
X169436600Y-116132119D01*
X169441913Y-116133543D01*
X169670000Y-116153498D01*
X169898087Y-116133543D01*
X169903400Y-116132119D01*
X169903402Y-116132119D01*
X170113933Y-116075707D01*
X170113935Y-116075706D01*
X170119243Y-116074284D01*
X170124225Y-116071961D01*
X170321762Y-115979849D01*
X170321767Y-115979846D01*
X170326749Y-115977523D01*
X170431611Y-115904098D01*
X170509789Y-115849357D01*
X170509792Y-115849355D01*
X170514300Y-115846198D01*
X170676198Y-115684300D01*
X170807523Y-115496749D01*
X170809846Y-115491767D01*
X170809849Y-115491762D01*
X170825805Y-115457543D01*
X170872722Y-115404258D01*
X170940999Y-115384797D01*
X171008959Y-115405339D01*
X171054195Y-115457543D01*
X171070151Y-115491762D01*
X171070154Y-115491767D01*
X171072477Y-115496749D01*
X171203802Y-115684300D01*
X171365700Y-115846198D01*
X171370208Y-115849355D01*
X171370211Y-115849357D01*
X171448389Y-115904098D01*
X171553251Y-115977523D01*
X171558233Y-115979846D01*
X171558238Y-115979849D01*
X171755775Y-116071961D01*
X171760757Y-116074284D01*
X171766065Y-116075706D01*
X171766067Y-116075707D01*
X171976598Y-116132119D01*
X171976600Y-116132119D01*
X171981913Y-116133543D01*
X172210000Y-116153498D01*
X172438087Y-116133543D01*
X172443400Y-116132119D01*
X172443402Y-116132119D01*
X172653933Y-116075707D01*
X172653935Y-116075706D01*
X172659243Y-116074284D01*
X172664225Y-116071961D01*
X172861762Y-115979849D01*
X172861767Y-115979846D01*
X172866749Y-115977523D01*
X172971611Y-115904098D01*
X173049789Y-115849357D01*
X173049792Y-115849355D01*
X173054300Y-115846198D01*
X173216198Y-115684300D01*
X173347523Y-115496749D01*
X173349846Y-115491767D01*
X173349849Y-115491762D01*
X173441961Y-115294225D01*
X173441961Y-115294224D01*
X173444284Y-115289243D01*
X173503543Y-115068087D01*
X173523498Y-114840000D01*
X173503543Y-114611913D01*
X173444284Y-114390757D01*
X173365805Y-114222457D01*
X173349849Y-114188238D01*
X173349846Y-114188233D01*
X173347523Y-114183251D01*
X173216198Y-113995700D01*
X173054300Y-113833802D01*
X173049792Y-113830645D01*
X173049789Y-113830643D01*
X172899229Y-113725220D01*
X172866749Y-113702477D01*
X172861767Y-113700154D01*
X172861762Y-113700151D01*
X172664225Y-113608039D01*
X172664224Y-113608039D01*
X172659243Y-113605716D01*
X172653935Y-113604294D01*
X172653933Y-113604293D01*
X172443402Y-113547881D01*
X172443400Y-113547881D01*
X172438087Y-113546457D01*
X172210000Y-113526502D01*
X171981913Y-113546457D01*
X171976600Y-113547881D01*
X171976598Y-113547881D01*
X171766067Y-113604293D01*
X171766065Y-113604294D01*
X171760757Y-113605716D01*
X171755776Y-113608039D01*
X171755775Y-113608039D01*
X171558238Y-113700151D01*
X171558233Y-113700154D01*
X171553251Y-113702477D01*
X171520771Y-113725220D01*
X171370211Y-113830643D01*
X171370208Y-113830645D01*
X171365700Y-113833802D01*
X171203802Y-113995700D01*
X171072477Y-114183251D01*
X171070154Y-114188233D01*
X171070151Y-114188238D01*
X171054195Y-114222457D01*
X171007278Y-114275742D01*
X170939001Y-114295203D01*
X170871041Y-114274661D01*
X170825805Y-114222457D01*
X170809849Y-114188238D01*
X170809846Y-114188233D01*
X170807523Y-114183251D01*
X170676198Y-113995700D01*
X170514300Y-113833802D01*
X170509792Y-113830645D01*
X170509789Y-113830643D01*
X170359229Y-113725220D01*
X170326749Y-113702477D01*
X170321767Y-113700154D01*
X170321762Y-113700151D01*
X170124225Y-113608039D01*
X170124224Y-113608039D01*
X170119243Y-113605716D01*
X170113935Y-113604294D01*
X170113933Y-113604293D01*
X169903402Y-113547881D01*
X169903400Y-113547881D01*
X169898087Y-113546457D01*
X169670000Y-113526502D01*
X169441913Y-113546457D01*
X169436600Y-113547881D01*
X169436598Y-113547881D01*
X169226067Y-113604293D01*
X169226065Y-113604294D01*
X169220757Y-113605716D01*
X169215776Y-113608039D01*
X169215775Y-113608039D01*
X169018238Y-113700151D01*
X169018233Y-113700154D01*
X169013251Y-113702477D01*
X168980771Y-113725220D01*
X168830211Y-113830643D01*
X168830208Y-113830645D01*
X168825700Y-113833802D01*
X168663802Y-113995700D01*
X168532477Y-114183251D01*
X168530154Y-114188233D01*
X168530151Y-114188238D01*
X168514195Y-114222457D01*
X168467278Y-114275742D01*
X168399001Y-114295203D01*
X168331041Y-114274661D01*
X168285805Y-114222457D01*
X168269849Y-114188238D01*
X168269846Y-114188233D01*
X168267523Y-114183251D01*
X168136198Y-113995700D01*
X167974300Y-113833802D01*
X167969792Y-113830645D01*
X167969789Y-113830643D01*
X167819229Y-113725220D01*
X167786749Y-113702477D01*
X167781767Y-113700154D01*
X167781762Y-113700151D01*
X167584225Y-113608039D01*
X167584224Y-113608039D01*
X167579243Y-113605716D01*
X167573935Y-113604294D01*
X167573933Y-113604293D01*
X167363402Y-113547881D01*
X167363400Y-113547881D01*
X167358087Y-113546457D01*
X167130000Y-113526502D01*
X166901913Y-113546457D01*
X166896600Y-113547881D01*
X166896598Y-113547881D01*
X166686067Y-113604293D01*
X166686065Y-113604294D01*
X166680757Y-113605716D01*
X166675776Y-113608039D01*
X166675775Y-113608039D01*
X166478238Y-113700151D01*
X166478233Y-113700154D01*
X166473251Y-113702477D01*
X166440771Y-113725220D01*
X166290211Y-113830643D01*
X166290208Y-113830645D01*
X166285700Y-113833802D01*
X166123802Y-113995700D01*
X165992477Y-114183251D01*
X165990154Y-114188233D01*
X165990151Y-114188238D01*
X165974195Y-114222457D01*
X165927278Y-114275742D01*
X165859001Y-114295203D01*
X165791041Y-114274661D01*
X165745805Y-114222457D01*
X165729849Y-114188238D01*
X165729846Y-114188233D01*
X165727523Y-114183251D01*
X165596198Y-113995700D01*
X165434300Y-113833802D01*
X165429792Y-113830645D01*
X165429789Y-113830643D01*
X165279229Y-113725220D01*
X165246749Y-113702477D01*
X165241767Y-113700154D01*
X165241762Y-113700151D01*
X165044225Y-113608039D01*
X165044224Y-113608039D01*
X165039243Y-113605716D01*
X165033935Y-113604294D01*
X165033933Y-113604293D01*
X164823402Y-113547881D01*
X164823400Y-113547881D01*
X164818087Y-113546457D01*
X164590000Y-113526502D01*
X164361913Y-113546457D01*
X164356600Y-113547881D01*
X164356598Y-113547881D01*
X164146067Y-113604293D01*
X164146065Y-113604294D01*
X164140757Y-113605716D01*
X164135776Y-113608039D01*
X164135775Y-113608039D01*
X163938238Y-113700151D01*
X163938233Y-113700154D01*
X163933251Y-113702477D01*
X163900771Y-113725220D01*
X163750211Y-113830643D01*
X163750208Y-113830645D01*
X163745700Y-113833802D01*
X163583802Y-113995700D01*
X163452477Y-114183251D01*
X163450154Y-114188233D01*
X163450151Y-114188238D01*
X163434195Y-114222457D01*
X163387278Y-114275742D01*
X163319001Y-114295203D01*
X163251041Y-114274661D01*
X163205805Y-114222457D01*
X163189849Y-114188238D01*
X163189846Y-114188233D01*
X163187523Y-114183251D01*
X163056198Y-113995700D01*
X162894300Y-113833802D01*
X162889792Y-113830645D01*
X162889789Y-113830643D01*
X162739229Y-113725220D01*
X162706749Y-113702477D01*
X162701767Y-113700154D01*
X162701762Y-113700151D01*
X162504225Y-113608039D01*
X162504224Y-113608039D01*
X162499243Y-113605716D01*
X162493935Y-113604294D01*
X162493933Y-113604293D01*
X162283402Y-113547881D01*
X162283400Y-113547881D01*
X162278087Y-113546457D01*
X162050000Y-113526502D01*
X161821913Y-113546457D01*
X161816600Y-113547881D01*
X161816598Y-113547881D01*
X161606067Y-113604293D01*
X161606065Y-113604294D01*
X161600757Y-113605716D01*
X161595776Y-113608039D01*
X161595775Y-113608039D01*
X161398238Y-113700151D01*
X161398233Y-113700154D01*
X161393251Y-113702477D01*
X161360771Y-113725220D01*
X161210211Y-113830643D01*
X161210208Y-113830645D01*
X161205700Y-113833802D01*
X161043802Y-113995700D01*
X160912477Y-114183251D01*
X160910154Y-114188233D01*
X160910151Y-114188238D01*
X160894195Y-114222457D01*
X160847278Y-114275742D01*
X160779001Y-114295203D01*
X160711041Y-114274661D01*
X160665805Y-114222457D01*
X160649849Y-114188238D01*
X160649846Y-114188233D01*
X160647523Y-114183251D01*
X160516198Y-113995700D01*
X160354300Y-113833802D01*
X160349792Y-113830645D01*
X160349789Y-113830643D01*
X160199229Y-113725220D01*
X160166749Y-113702477D01*
X160161767Y-113700154D01*
X160161762Y-113700151D01*
X159964225Y-113608039D01*
X159964224Y-113608039D01*
X159959243Y-113605716D01*
X159953935Y-113604294D01*
X159953933Y-113604293D01*
X159743402Y-113547881D01*
X159743400Y-113547881D01*
X159738087Y-113546457D01*
X159510000Y-113526502D01*
X159281913Y-113546457D01*
X159276600Y-113547881D01*
X159276598Y-113547881D01*
X159066067Y-113604293D01*
X159066065Y-113604294D01*
X159060757Y-113605716D01*
X159055776Y-113608039D01*
X159055775Y-113608039D01*
X158858238Y-113700151D01*
X158858233Y-113700154D01*
X158853251Y-113702477D01*
X158820771Y-113725220D01*
X158670211Y-113830643D01*
X158670208Y-113830645D01*
X158665700Y-113833802D01*
X158503802Y-113995700D01*
X158372477Y-114183251D01*
X158370154Y-114188233D01*
X158370151Y-114188238D01*
X158354195Y-114222457D01*
X158307278Y-114275742D01*
X158239001Y-114295203D01*
X158171041Y-114274661D01*
X158125805Y-114222457D01*
X158109849Y-114188238D01*
X158109846Y-114188233D01*
X158107523Y-114183251D01*
X157976198Y-113995700D01*
X157814300Y-113833802D01*
X157809792Y-113830645D01*
X157809789Y-113830643D01*
X157659229Y-113725220D01*
X157626749Y-113702477D01*
X157621767Y-113700154D01*
X157621762Y-113700151D01*
X157424225Y-113608039D01*
X157424224Y-113608039D01*
X157419243Y-113605716D01*
X157413935Y-113604294D01*
X157413933Y-113604293D01*
X157203402Y-113547881D01*
X157203400Y-113547881D01*
X157198087Y-113546457D01*
X156970000Y-113526502D01*
X156741913Y-113546457D01*
X156736600Y-113547881D01*
X156736598Y-113547881D01*
X156526067Y-113604293D01*
X156526065Y-113604294D01*
X156520757Y-113605716D01*
X156515776Y-113608039D01*
X156515775Y-113608039D01*
X156318238Y-113700151D01*
X156318233Y-113700154D01*
X156313251Y-113702477D01*
X156280771Y-113725220D01*
X156130211Y-113830643D01*
X156130208Y-113830645D01*
X156125700Y-113833802D01*
X155963802Y-113995700D01*
X155832477Y-114183251D01*
X155830154Y-114188233D01*
X155830151Y-114188238D01*
X155814195Y-114222457D01*
X155767278Y-114275742D01*
X155699001Y-114295203D01*
X155631041Y-114274661D01*
X155585805Y-114222457D01*
X155569849Y-114188238D01*
X155569846Y-114188233D01*
X155567523Y-114183251D01*
X155436198Y-113995700D01*
X155274300Y-113833802D01*
X155269792Y-113830645D01*
X155269789Y-113830643D01*
X155119229Y-113725220D01*
X155086749Y-113702477D01*
X155081767Y-113700154D01*
X155081762Y-113700151D01*
X154884225Y-113608039D01*
X154884224Y-113608039D01*
X154879243Y-113605716D01*
X154873935Y-113604294D01*
X154873933Y-113604293D01*
X154663402Y-113547881D01*
X154663400Y-113547881D01*
X154658087Y-113546457D01*
X154430000Y-113526502D01*
X154201913Y-113546457D01*
X154196600Y-113547881D01*
X154196598Y-113547881D01*
X153986067Y-113604293D01*
X153986065Y-113604294D01*
X153980757Y-113605716D01*
X153975776Y-113608039D01*
X153975775Y-113608039D01*
X153778238Y-113700151D01*
X153778233Y-113700154D01*
X153773251Y-113702477D01*
X153740771Y-113725220D01*
X153590211Y-113830643D01*
X153590208Y-113830645D01*
X153585700Y-113833802D01*
X153423802Y-113995700D01*
X153292477Y-114183251D01*
X153290154Y-114188233D01*
X153290151Y-114188238D01*
X153274195Y-114222457D01*
X153195716Y-114390757D01*
X153136457Y-114611913D01*
X153116502Y-114840000D01*
X151683498Y-114840000D01*
X151663543Y-114611913D01*
X151604284Y-114390757D01*
X151525805Y-114222457D01*
X151509849Y-114188238D01*
X151509846Y-114188233D01*
X151507523Y-114183251D01*
X151376198Y-113995700D01*
X151214300Y-113833802D01*
X151209792Y-113830645D01*
X151209789Y-113830643D01*
X151059229Y-113725220D01*
X151026749Y-113702477D01*
X151021767Y-113700154D01*
X151021762Y-113700151D01*
X150824225Y-113608039D01*
X150824224Y-113608039D01*
X150819243Y-113605716D01*
X150813935Y-113604294D01*
X150813933Y-113604293D01*
X150603402Y-113547881D01*
X150603400Y-113547881D01*
X150598087Y-113546457D01*
X150370000Y-113526502D01*
X150141913Y-113546457D01*
X150136600Y-113547881D01*
X150136598Y-113547881D01*
X149926067Y-113604293D01*
X149926065Y-113604294D01*
X149920757Y-113605716D01*
X149915776Y-113608039D01*
X149915775Y-113608039D01*
X149718238Y-113700151D01*
X149718233Y-113700154D01*
X149713251Y-113702477D01*
X149680771Y-113725220D01*
X149530211Y-113830643D01*
X149530208Y-113830645D01*
X149525700Y-113833802D01*
X149363802Y-113995700D01*
X149232477Y-114183251D01*
X149230154Y-114188233D01*
X149230151Y-114188238D01*
X149214195Y-114222457D01*
X149167278Y-114275742D01*
X149099001Y-114295203D01*
X149031041Y-114274661D01*
X148985805Y-114222457D01*
X148969849Y-114188238D01*
X148969846Y-114188233D01*
X148967523Y-114183251D01*
X148836198Y-113995700D01*
X148674300Y-113833802D01*
X148669792Y-113830645D01*
X148669789Y-113830643D01*
X148519229Y-113725220D01*
X148474901Y-113669763D01*
X148465500Y-113622007D01*
X148465500Y-113619020D01*
X148466030Y-113607786D01*
X148467708Y-113600281D01*
X148465562Y-113531988D01*
X148465500Y-113528031D01*
X148465500Y-113500017D01*
X148464992Y-113495996D01*
X148464058Y-113484144D01*
X148462914Y-113447718D01*
X148462914Y-113447717D01*
X148462665Y-113439795D01*
X148456987Y-113420251D01*
X148452977Y-113400888D01*
X148451420Y-113388560D01*
X148451420Y-113388558D01*
X148450427Y-113380701D01*
X148447511Y-113373337D01*
X148447510Y-113373332D01*
X148434093Y-113339444D01*
X148430248Y-113328215D01*
X148420080Y-113293219D01*
X148417869Y-113285607D01*
X148407510Y-113268091D01*
X148398813Y-113250341D01*
X148391319Y-113231412D01*
X148365240Y-113195517D01*
X148358722Y-113185595D01*
X148340170Y-113154224D01*
X148340166Y-113154219D01*
X148336134Y-113147401D01*
X148321747Y-113133014D01*
X148308906Y-113117980D01*
X148301602Y-113107927D01*
X148296942Y-113101513D01*
X148262750Y-113073227D01*
X148253971Y-113065238D01*
X146555250Y-111366517D01*
X146547674Y-111358191D01*
X146543553Y-111351697D01*
X146493734Y-111304914D01*
X146490893Y-111302160D01*
X146471094Y-111282361D01*
X146467969Y-111279937D01*
X146467960Y-111279929D01*
X146467874Y-111279863D01*
X146458849Y-111272155D01*
X146432285Y-111247210D01*
X146426506Y-111241783D01*
X146408669Y-111231977D01*
X146392153Y-111221127D01*
X146376067Y-111208650D01*
X146335334Y-111191024D01*
X146324686Y-111185807D01*
X146313058Y-111179415D01*
X146285803Y-111164431D01*
X146278128Y-111162460D01*
X146278122Y-111162458D01*
X146266089Y-111159369D01*
X146247387Y-111152966D01*
X146228708Y-111144883D01*
X146194872Y-111139524D01*
X146184873Y-111137940D01*
X146173260Y-111135535D01*
X146130282Y-111124500D01*
X146109935Y-111124500D01*
X146090224Y-111122949D01*
X146077950Y-111121005D01*
X146070121Y-111119765D01*
X146062229Y-111120511D01*
X146025944Y-111123941D01*
X146014086Y-111124500D01*
X145095423Y-111124500D01*
X145027302Y-111104498D01*
X145006328Y-111087595D01*
X134580250Y-100661517D01*
X134572674Y-100653191D01*
X134568553Y-100646697D01*
X134518734Y-100599914D01*
X134515893Y-100597160D01*
X134496094Y-100577361D01*
X134492969Y-100574937D01*
X134492960Y-100574929D01*
X134492874Y-100574863D01*
X134483849Y-100567155D01*
X134457285Y-100542210D01*
X134451506Y-100536783D01*
X134433669Y-100526977D01*
X134417153Y-100516127D01*
X134401067Y-100503650D01*
X134360334Y-100486024D01*
X134349686Y-100480807D01*
X134338058Y-100474415D01*
X134310803Y-100459431D01*
X134303128Y-100457460D01*
X134303122Y-100457458D01*
X134291089Y-100454369D01*
X134272387Y-100447966D01*
X134253708Y-100439883D01*
X134219872Y-100434524D01*
X134209873Y-100432940D01*
X134198260Y-100430535D01*
X134155282Y-100419500D01*
X134134935Y-100419500D01*
X134115224Y-100417949D01*
X134102950Y-100416005D01*
X134095121Y-100414765D01*
X134087229Y-100415511D01*
X134050944Y-100418941D01*
X134039086Y-100419500D01*
X127305511Y-100419500D01*
X127237390Y-100399498D01*
X127199719Y-100361940D01*
X127193324Y-100352054D01*
X127110014Y-100223277D01*
X127106538Y-100219457D01*
X127106533Y-100219450D01*
X126962435Y-100061088D01*
X126931383Y-99997242D01*
X126939779Y-99926744D01*
X126984956Y-99871976D01*
X127011400Y-99858307D01*
X127118052Y-99818325D01*
X127133649Y-99809786D01*
X127235724Y-99733285D01*
X127248285Y-99720724D01*
X127324786Y-99618649D01*
X127333324Y-99603054D01*
X127378478Y-99482606D01*
X127382105Y-99467351D01*
X127387631Y-99416486D01*
X127388000Y-99409672D01*
X127388000Y-98787115D01*
X127383525Y-98771876D01*
X127382135Y-98770671D01*
X127374452Y-98769000D01*
X125902000Y-98769000D01*
X125833879Y-98748998D01*
X125787386Y-98695342D01*
X125776000Y-98643000D01*
X125776000Y-98242885D01*
X126284000Y-98242885D01*
X126288475Y-98258124D01*
X126289865Y-98259329D01*
X126297548Y-98261000D01*
X127369884Y-98261000D01*
X127385123Y-98256525D01*
X127386328Y-98255135D01*
X127387999Y-98247452D01*
X127387999Y-97620331D01*
X127387629Y-97613510D01*
X127382105Y-97562648D01*
X127378479Y-97547396D01*
X127333324Y-97426946D01*
X127324786Y-97411351D01*
X127248285Y-97309276D01*
X127235724Y-97296715D01*
X127133649Y-97220214D01*
X127118054Y-97211676D01*
X126997606Y-97166522D01*
X126982351Y-97162895D01*
X126931486Y-97157369D01*
X126924672Y-97157000D01*
X126302115Y-97157000D01*
X126286876Y-97161475D01*
X126285671Y-97162865D01*
X126284000Y-97170548D01*
X126284000Y-98242885D01*
X125776000Y-98242885D01*
X125776000Y-97175116D01*
X125771525Y-97159877D01*
X125770135Y-97158672D01*
X125762452Y-97157001D01*
X125135331Y-97157001D01*
X125128510Y-97157371D01*
X125077648Y-97162895D01*
X125062396Y-97166521D01*
X124941946Y-97211676D01*
X124926351Y-97220214D01*
X124824276Y-97296715D01*
X124811715Y-97309276D01*
X124735214Y-97411351D01*
X124726676Y-97426946D01*
X124685297Y-97537322D01*
X124642655Y-97594087D01*
X124576093Y-97618786D01*
X124506744Y-97603578D01*
X124474121Y-97577891D01*
X124423151Y-97521876D01*
X124423148Y-97521873D01*
X124419670Y-97518051D01*
X124415619Y-97514852D01*
X124415615Y-97514848D01*
X124248414Y-97382800D01*
X124248410Y-97382798D01*
X124244359Y-97379598D01*
X124239835Y-97377101D01*
X124239831Y-97377098D01*
X124190608Y-97349926D01*
X124140636Y-97299494D01*
X124125500Y-97239617D01*
X124125500Y-96811500D01*
X124145502Y-96743379D01*
X124199158Y-96696886D01*
X124251500Y-96685500D01*
X124333278Y-96685500D01*
X124395460Y-96678745D01*
X124531849Y-96627615D01*
X124648405Y-96540261D01*
X124706263Y-96463062D01*
X125263637Y-96463062D01*
X125272933Y-96475077D01*
X125324138Y-96510931D01*
X125333633Y-96516414D01*
X125531091Y-96608490D01*
X125541383Y-96612236D01*
X125751832Y-96668625D01*
X125762625Y-96670528D01*
X125979669Y-96689517D01*
X125990619Y-96689517D01*
X126207663Y-96670528D01*
X126218456Y-96668625D01*
X126428905Y-96612236D01*
X126439197Y-96608490D01*
X126636655Y-96516414D01*
X126646150Y-96510931D01*
X126698192Y-96474491D01*
X126706568Y-96464012D01*
X126699500Y-96450566D01*
X125997956Y-95749022D01*
X125984012Y-95741408D01*
X125982179Y-95741539D01*
X125975564Y-95745790D01*
X125270067Y-96451287D01*
X125263637Y-96463062D01*
X124706263Y-96463062D01*
X124735759Y-96423705D01*
X124786889Y-96287316D01*
X124793644Y-96225134D01*
X124793644Y-96221815D01*
X124817297Y-96154890D01*
X124863300Y-96119196D01*
X124862285Y-96117266D01*
X124873144Y-96111558D01*
X124873389Y-96111368D01*
X124873547Y-96111347D01*
X124911578Y-96091356D01*
X125613122Y-95389812D01*
X125619500Y-95378132D01*
X126349552Y-95378132D01*
X126349683Y-95379965D01*
X126353934Y-95386580D01*
X127059431Y-96092077D01*
X127071206Y-96098507D01*
X127083221Y-96089211D01*
X127119075Y-96038006D01*
X127124558Y-96028511D01*
X127216634Y-95831053D01*
X127220380Y-95820761D01*
X127276769Y-95610312D01*
X127278672Y-95599519D01*
X127297661Y-95382475D01*
X127297661Y-95371525D01*
X127278672Y-95154481D01*
X127276769Y-95143688D01*
X127220380Y-94933239D01*
X127216634Y-94922947D01*
X127124558Y-94725489D01*
X127119075Y-94715994D01*
X127082635Y-94663952D01*
X127072156Y-94655576D01*
X127058710Y-94662644D01*
X126357166Y-95364188D01*
X126349552Y-95378132D01*
X125619500Y-95378132D01*
X125620736Y-95375868D01*
X125620605Y-95374035D01*
X125616354Y-95367420D01*
X124910857Y-94661923D01*
X124869115Y-94639129D01*
X124859115Y-94636953D01*
X124808917Y-94586747D01*
X124793693Y-94533186D01*
X124793644Y-94532281D01*
X124793644Y-94528866D01*
X124786889Y-94466684D01*
X124735759Y-94330295D01*
X124705551Y-94289988D01*
X125263720Y-94289988D01*
X125270788Y-94303434D01*
X125972332Y-95004978D01*
X125986276Y-95012592D01*
X125988109Y-95012461D01*
X125994724Y-95008210D01*
X126700221Y-94302713D01*
X126706651Y-94290938D01*
X126697355Y-94278923D01*
X126646150Y-94243069D01*
X126636655Y-94237586D01*
X126439197Y-94145510D01*
X126428905Y-94141764D01*
X126218456Y-94085375D01*
X126207663Y-94083472D01*
X125990619Y-94064483D01*
X125979669Y-94064483D01*
X125762625Y-94083472D01*
X125751832Y-94085375D01*
X125541383Y-94141764D01*
X125531091Y-94145510D01*
X125333633Y-94237586D01*
X125324138Y-94243069D01*
X125272096Y-94279509D01*
X125263720Y-94289988D01*
X124705551Y-94289988D01*
X124648405Y-94213739D01*
X124531849Y-94126385D01*
X124395460Y-94075255D01*
X124333278Y-94068500D01*
X124246644Y-94068500D01*
X124178523Y-94048498D01*
X124132030Y-93994842D01*
X124120644Y-93942500D01*
X124120644Y-89572500D01*
X124140646Y-89504379D01*
X124194302Y-89457886D01*
X124246644Y-89446500D01*
X124429483Y-89446500D01*
X124491665Y-89439745D01*
X124628054Y-89388615D01*
X124744610Y-89301261D01*
X124802468Y-89224062D01*
X127859842Y-89224062D01*
X127869138Y-89236077D01*
X127920343Y-89271931D01*
X127929838Y-89277414D01*
X128127296Y-89369490D01*
X128137588Y-89373236D01*
X128348037Y-89429625D01*
X128358830Y-89431528D01*
X128575874Y-89450517D01*
X128586824Y-89450517D01*
X128803868Y-89431528D01*
X128814661Y-89429625D01*
X129025110Y-89373236D01*
X129035402Y-89369490D01*
X129232860Y-89277414D01*
X129242355Y-89271931D01*
X129294397Y-89235491D01*
X129302773Y-89225012D01*
X129295705Y-89211566D01*
X128594161Y-88510022D01*
X128580217Y-88502408D01*
X128578384Y-88502539D01*
X128571769Y-88506790D01*
X127866272Y-89212287D01*
X127859842Y-89224062D01*
X124802468Y-89224062D01*
X124831964Y-89184705D01*
X124883094Y-89048316D01*
X124889849Y-88986134D01*
X124889849Y-88143475D01*
X127268832Y-88143475D01*
X127287821Y-88360519D01*
X127289724Y-88371312D01*
X127346113Y-88581761D01*
X127349859Y-88592053D01*
X127441935Y-88789511D01*
X127447418Y-88799006D01*
X127483858Y-88851048D01*
X127494337Y-88859424D01*
X127507783Y-88852356D01*
X128209327Y-88150812D01*
X128215705Y-88139132D01*
X128945757Y-88139132D01*
X128945888Y-88140965D01*
X128950139Y-88147580D01*
X129655636Y-88853077D01*
X129667411Y-88859507D01*
X129679426Y-88850211D01*
X129715280Y-88799006D01*
X129720763Y-88789511D01*
X129812839Y-88592053D01*
X129816585Y-88581761D01*
X129872974Y-88371312D01*
X129874877Y-88360519D01*
X129893866Y-88143475D01*
X129893866Y-88132525D01*
X129874877Y-87915481D01*
X129872974Y-87904688D01*
X129816585Y-87694239D01*
X129812839Y-87683947D01*
X129720763Y-87486489D01*
X129715280Y-87476994D01*
X129678840Y-87424952D01*
X129668361Y-87416576D01*
X129654915Y-87423644D01*
X128953371Y-88125188D01*
X128945757Y-88139132D01*
X128215705Y-88139132D01*
X128216941Y-88136868D01*
X128216810Y-88135035D01*
X128212559Y-88128420D01*
X127507062Y-87422923D01*
X127495287Y-87416493D01*
X127483272Y-87425789D01*
X127447418Y-87476994D01*
X127441935Y-87486489D01*
X127349859Y-87683947D01*
X127346113Y-87694239D01*
X127289724Y-87904688D01*
X127287821Y-87915481D01*
X127268832Y-88132525D01*
X127268832Y-88143475D01*
X124889849Y-88143475D01*
X124889849Y-87289866D01*
X124883094Y-87227684D01*
X124831964Y-87091295D01*
X124801756Y-87050988D01*
X127859925Y-87050988D01*
X127866993Y-87064434D01*
X128568537Y-87765978D01*
X128582481Y-87773592D01*
X128584314Y-87773461D01*
X128590929Y-87769210D01*
X129296426Y-87063713D01*
X129302856Y-87051938D01*
X129293560Y-87039923D01*
X129242355Y-87004069D01*
X129232860Y-86998586D01*
X129035402Y-86906510D01*
X129025110Y-86902764D01*
X128814661Y-86846375D01*
X128803868Y-86844472D01*
X128586824Y-86825483D01*
X128575874Y-86825483D01*
X128358830Y-86844472D01*
X128348037Y-86846375D01*
X128137588Y-86902764D01*
X128127296Y-86906510D01*
X127929838Y-86998586D01*
X127920343Y-87004069D01*
X127868301Y-87040509D01*
X127859925Y-87050988D01*
X124801756Y-87050988D01*
X124744610Y-86974739D01*
X124628054Y-86887385D01*
X124491665Y-86836255D01*
X124429483Y-86829500D01*
X124342849Y-86829500D01*
X124274728Y-86809498D01*
X124228235Y-86755842D01*
X124216849Y-86703500D01*
X124216849Y-76124073D01*
X124236851Y-76055952D01*
X124253754Y-76034978D01*
X131036327Y-69252405D01*
X131098639Y-69218379D01*
X131125422Y-69215500D01*
X143430980Y-69215500D01*
X143442214Y-69216030D01*
X143449719Y-69217708D01*
X143518012Y-69215562D01*
X143521969Y-69215500D01*
X143549983Y-69215500D01*
X143553908Y-69215004D01*
X143553909Y-69215004D01*
X143554004Y-69214992D01*
X143565849Y-69214059D01*
X143595670Y-69213122D01*
X143602282Y-69212914D01*
X143602283Y-69212914D01*
X143610205Y-69212665D01*
X143629749Y-69206987D01*
X143649112Y-69202977D01*
X143661440Y-69201420D01*
X143661442Y-69201420D01*
X143669299Y-69200427D01*
X143676663Y-69197511D01*
X143676668Y-69197510D01*
X143710556Y-69184093D01*
X143721785Y-69180248D01*
X143738465Y-69175402D01*
X143764393Y-69167869D01*
X143771220Y-69163831D01*
X143771223Y-69163830D01*
X143781906Y-69157512D01*
X143799664Y-69148812D01*
X143811215Y-69144239D01*
X143811221Y-69144235D01*
X143818588Y-69141319D01*
X143854491Y-69115234D01*
X143864410Y-69108719D01*
X143895768Y-69090174D01*
X143895772Y-69090171D01*
X143902598Y-69086134D01*
X143916982Y-69071750D01*
X143932016Y-69058909D01*
X143942073Y-69051602D01*
X143948487Y-69046942D01*
X143976778Y-69012744D01*
X143984767Y-69003965D01*
X145173477Y-67815255D01*
X145181803Y-67807678D01*
X145188303Y-67803553D01*
X145235101Y-67753718D01*
X145237855Y-67750877D01*
X145257638Y-67731094D01*
X145260129Y-67727883D01*
X145267838Y-67718856D01*
X145271190Y-67715287D01*
X145298217Y-67686506D01*
X145308022Y-67668671D01*
X145318876Y-67652147D01*
X145326491Y-67642330D01*
X145326492Y-67642329D01*
X145331349Y-67636067D01*
X145348969Y-67595350D01*
X145354192Y-67584689D01*
X145371749Y-67552753D01*
X145371751Y-67552748D01*
X145375569Y-67545803D01*
X145377539Y-67538129D01*
X145377542Y-67538122D01*
X145380632Y-67526087D01*
X145387036Y-67507382D01*
X145391967Y-67495987D01*
X145395117Y-67488708D01*
X145402060Y-67444873D01*
X145404467Y-67433251D01*
X145405781Y-67428134D01*
X145415500Y-67390282D01*
X145415500Y-67369935D01*
X145417051Y-67350224D01*
X145418995Y-67337950D01*
X145420235Y-67330121D01*
X145416059Y-67285944D01*
X145415500Y-67274086D01*
X145415500Y-67254010D01*
X145435502Y-67185889D01*
X145489158Y-67139396D01*
X145559432Y-67129292D01*
X145624012Y-67158786D01*
X145655695Y-67200760D01*
X145670151Y-67231762D01*
X145670154Y-67231767D01*
X145672477Y-67236749D01*
X145706924Y-67285944D01*
X145785356Y-67397956D01*
X145803802Y-67424300D01*
X145965700Y-67586198D01*
X145970208Y-67589355D01*
X145970211Y-67589357D01*
X146045865Y-67642330D01*
X146153251Y-67717523D01*
X146158233Y-67719846D01*
X146158238Y-67719849D01*
X146349380Y-67808979D01*
X146360757Y-67814284D01*
X146366065Y-67815706D01*
X146366067Y-67815707D01*
X146576598Y-67872119D01*
X146576600Y-67872119D01*
X146581913Y-67873543D01*
X146810000Y-67893498D01*
X147038087Y-67873543D01*
X147043400Y-67872119D01*
X147043402Y-67872119D01*
X147253933Y-67815707D01*
X147253935Y-67815706D01*
X147259243Y-67814284D01*
X147270620Y-67808979D01*
X147461762Y-67719849D01*
X147461767Y-67719846D01*
X147466749Y-67717523D01*
X147574135Y-67642330D01*
X147649789Y-67589357D01*
X147649792Y-67589355D01*
X147654300Y-67586198D01*
X147816198Y-67424300D01*
X147834645Y-67397956D01*
X147913076Y-67285944D01*
X147947523Y-67236749D01*
X147949846Y-67231767D01*
X147949849Y-67231762D01*
X147966081Y-67196951D01*
X148012998Y-67143666D01*
X148081275Y-67124205D01*
X148149235Y-67144747D01*
X148194471Y-67196951D01*
X148210586Y-67231511D01*
X148216069Y-67241007D01*
X148341028Y-67419467D01*
X148348084Y-67427875D01*
X148502125Y-67581916D01*
X148510533Y-67588972D01*
X148688993Y-67713931D01*
X148698489Y-67719414D01*
X148895947Y-67811490D01*
X148906239Y-67815236D01*
X149078503Y-67861394D01*
X149092599Y-67861058D01*
X149096000Y-67853116D01*
X149096000Y-67847967D01*
X149604000Y-67847967D01*
X149607973Y-67861498D01*
X149616522Y-67862727D01*
X149793761Y-67815236D01*
X149804053Y-67811490D01*
X150001511Y-67719414D01*
X150011007Y-67713931D01*
X150189467Y-67588972D01*
X150197875Y-67581916D01*
X150351916Y-67427875D01*
X150358972Y-67419467D01*
X150483931Y-67241007D01*
X150489414Y-67231511D01*
X150505529Y-67196951D01*
X150552446Y-67143666D01*
X150620723Y-67124205D01*
X150688683Y-67144747D01*
X150733919Y-67196951D01*
X150750151Y-67231762D01*
X150750154Y-67231767D01*
X150752477Y-67236749D01*
X150786924Y-67285944D01*
X150865356Y-67397956D01*
X150883802Y-67424300D01*
X151045700Y-67586198D01*
X151050208Y-67589355D01*
X151050211Y-67589357D01*
X151125865Y-67642330D01*
X151233251Y-67717523D01*
X151238233Y-67719846D01*
X151238238Y-67719849D01*
X151429380Y-67808979D01*
X151440757Y-67814284D01*
X151446065Y-67815706D01*
X151446067Y-67815707D01*
X151656598Y-67872119D01*
X151656600Y-67872119D01*
X151661913Y-67873543D01*
X151890000Y-67893498D01*
X152118087Y-67873543D01*
X152123400Y-67872119D01*
X152123402Y-67872119D01*
X152333933Y-67815707D01*
X152333935Y-67815706D01*
X152339243Y-67814284D01*
X152350620Y-67808979D01*
X152541762Y-67719849D01*
X152541767Y-67719846D01*
X152546749Y-67717523D01*
X152654135Y-67642330D01*
X152729789Y-67589357D01*
X152729792Y-67589355D01*
X152734300Y-67586198D01*
X152896198Y-67424300D01*
X152914645Y-67397956D01*
X152993076Y-67285944D01*
X153027523Y-67236749D01*
X153029846Y-67231767D01*
X153029849Y-67231762D01*
X153045805Y-67197543D01*
X153092722Y-67144258D01*
X153160999Y-67124797D01*
X153228959Y-67145339D01*
X153274195Y-67197543D01*
X153290151Y-67231762D01*
X153290154Y-67231767D01*
X153292477Y-67236749D01*
X153326924Y-67285944D01*
X153405356Y-67397956D01*
X153423802Y-67424300D01*
X153585700Y-67586198D01*
X153590208Y-67589355D01*
X153590211Y-67589357D01*
X153665865Y-67642330D01*
X153773251Y-67717523D01*
X153778233Y-67719846D01*
X153778238Y-67719849D01*
X153969380Y-67808979D01*
X153980757Y-67814284D01*
X153986065Y-67815706D01*
X153986067Y-67815707D01*
X154196598Y-67872119D01*
X154196600Y-67872119D01*
X154201913Y-67873543D01*
X154430000Y-67893498D01*
X154658087Y-67873543D01*
X154663400Y-67872119D01*
X154663402Y-67872119D01*
X154873933Y-67815707D01*
X154873935Y-67815706D01*
X154879243Y-67814284D01*
X154890620Y-67808979D01*
X155081762Y-67719849D01*
X155081767Y-67719846D01*
X155086749Y-67717523D01*
X155194135Y-67642330D01*
X155269789Y-67589357D01*
X155269792Y-67589355D01*
X155274300Y-67586198D01*
X155436198Y-67424300D01*
X155454645Y-67397956D01*
X155533076Y-67285944D01*
X155567523Y-67236749D01*
X155569846Y-67231767D01*
X155569849Y-67231762D01*
X155661961Y-67034225D01*
X155661961Y-67034224D01*
X155664284Y-67029243D01*
X155723543Y-66808087D01*
X155743498Y-66580000D01*
X158196502Y-66580000D01*
X158216457Y-66808087D01*
X158275716Y-67029243D01*
X158278039Y-67034224D01*
X158278039Y-67034225D01*
X158370151Y-67231762D01*
X158370154Y-67231767D01*
X158372477Y-67236749D01*
X158406924Y-67285944D01*
X158485356Y-67397956D01*
X158503802Y-67424300D01*
X158665700Y-67586198D01*
X158670208Y-67589355D01*
X158670211Y-67589357D01*
X158745865Y-67642330D01*
X158853251Y-67717523D01*
X158858233Y-67719846D01*
X158858238Y-67719849D01*
X159049380Y-67808979D01*
X159060757Y-67814284D01*
X159066065Y-67815706D01*
X159066067Y-67815707D01*
X159276598Y-67872119D01*
X159276600Y-67872119D01*
X159281913Y-67873543D01*
X159510000Y-67893498D01*
X159738087Y-67873543D01*
X159743400Y-67872119D01*
X159743402Y-67872119D01*
X159953933Y-67815707D01*
X159953935Y-67815706D01*
X159959243Y-67814284D01*
X159970620Y-67808979D01*
X160161762Y-67719849D01*
X160161767Y-67719846D01*
X160166749Y-67717523D01*
X160274135Y-67642330D01*
X160349789Y-67589357D01*
X160349792Y-67589355D01*
X160354300Y-67586198D01*
X160516198Y-67424300D01*
X160534645Y-67397956D01*
X160613076Y-67285944D01*
X160647523Y-67236749D01*
X160649846Y-67231767D01*
X160649849Y-67231762D01*
X160665805Y-67197543D01*
X160712722Y-67144258D01*
X160780999Y-67124797D01*
X160848959Y-67145339D01*
X160894195Y-67197543D01*
X160910151Y-67231762D01*
X160910154Y-67231767D01*
X160912477Y-67236749D01*
X160946924Y-67285944D01*
X161025356Y-67397956D01*
X161043802Y-67424300D01*
X161205700Y-67586198D01*
X161210208Y-67589355D01*
X161210211Y-67589357D01*
X161285865Y-67642330D01*
X161393251Y-67717523D01*
X161398233Y-67719846D01*
X161398238Y-67719849D01*
X161589380Y-67808979D01*
X161600757Y-67814284D01*
X161606065Y-67815706D01*
X161606067Y-67815707D01*
X161816598Y-67872119D01*
X161816600Y-67872119D01*
X161821913Y-67873543D01*
X162050000Y-67893498D01*
X162278087Y-67873543D01*
X162283400Y-67872119D01*
X162283402Y-67872119D01*
X162493933Y-67815707D01*
X162493935Y-67815706D01*
X162499243Y-67814284D01*
X162510620Y-67808979D01*
X162701762Y-67719849D01*
X162701767Y-67719846D01*
X162706749Y-67717523D01*
X162814135Y-67642330D01*
X162889789Y-67589357D01*
X162889792Y-67589355D01*
X162894300Y-67586198D01*
X163056198Y-67424300D01*
X163074645Y-67397956D01*
X163153076Y-67285944D01*
X163187523Y-67236749D01*
X163189846Y-67231767D01*
X163189849Y-67231762D01*
X163205805Y-67197543D01*
X163252722Y-67144258D01*
X163320999Y-67124797D01*
X163388959Y-67145339D01*
X163434195Y-67197543D01*
X163450151Y-67231762D01*
X163450154Y-67231767D01*
X163452477Y-67236749D01*
X163486924Y-67285944D01*
X163565356Y-67397956D01*
X163583802Y-67424300D01*
X163745700Y-67586198D01*
X163750208Y-67589355D01*
X163750211Y-67589357D01*
X163825865Y-67642330D01*
X163933251Y-67717523D01*
X163938233Y-67719846D01*
X163938238Y-67719849D01*
X164129380Y-67808979D01*
X164140757Y-67814284D01*
X164146065Y-67815706D01*
X164146067Y-67815707D01*
X164356598Y-67872119D01*
X164356600Y-67872119D01*
X164361913Y-67873543D01*
X164590000Y-67893498D01*
X164818087Y-67873543D01*
X164823400Y-67872119D01*
X164823402Y-67872119D01*
X165033933Y-67815707D01*
X165033935Y-67815706D01*
X165039243Y-67814284D01*
X165050620Y-67808979D01*
X165241762Y-67719849D01*
X165241767Y-67719846D01*
X165246749Y-67717523D01*
X165354135Y-67642330D01*
X165429789Y-67589357D01*
X165429792Y-67589355D01*
X165434300Y-67586198D01*
X165596198Y-67424300D01*
X165614645Y-67397956D01*
X165693076Y-67285944D01*
X165727523Y-67236749D01*
X165729846Y-67231767D01*
X165729849Y-67231762D01*
X165745805Y-67197543D01*
X165792722Y-67144258D01*
X165860999Y-67124797D01*
X165928959Y-67145339D01*
X165974195Y-67197543D01*
X165990151Y-67231762D01*
X165990154Y-67231767D01*
X165992477Y-67236749D01*
X166026924Y-67285944D01*
X166105356Y-67397956D01*
X166123802Y-67424300D01*
X166285700Y-67586198D01*
X166290208Y-67589355D01*
X166290211Y-67589357D01*
X166365865Y-67642330D01*
X166473251Y-67717523D01*
X166478233Y-67719846D01*
X166478238Y-67719849D01*
X166669380Y-67808979D01*
X166680757Y-67814284D01*
X166686065Y-67815706D01*
X166686067Y-67815707D01*
X166896598Y-67872119D01*
X166896600Y-67872119D01*
X166901913Y-67873543D01*
X167130000Y-67893498D01*
X167358087Y-67873543D01*
X167363400Y-67872119D01*
X167363402Y-67872119D01*
X167573933Y-67815707D01*
X167573935Y-67815706D01*
X167579243Y-67814284D01*
X167590620Y-67808979D01*
X167781762Y-67719849D01*
X167781767Y-67719846D01*
X167786749Y-67717523D01*
X167894135Y-67642330D01*
X167969789Y-67589357D01*
X167969792Y-67589355D01*
X167974300Y-67586198D01*
X168136198Y-67424300D01*
X168154645Y-67397956D01*
X168233076Y-67285944D01*
X168267523Y-67236749D01*
X168269846Y-67231767D01*
X168269849Y-67231762D01*
X168285805Y-67197543D01*
X168332722Y-67144258D01*
X168400999Y-67124797D01*
X168468959Y-67145339D01*
X168514195Y-67197543D01*
X168530151Y-67231762D01*
X168530154Y-67231767D01*
X168532477Y-67236749D01*
X168566924Y-67285944D01*
X168645356Y-67397956D01*
X168663802Y-67424300D01*
X168825700Y-67586198D01*
X168830208Y-67589355D01*
X168830211Y-67589357D01*
X168905865Y-67642330D01*
X169013251Y-67717523D01*
X169018233Y-67719846D01*
X169018238Y-67719849D01*
X169209380Y-67808979D01*
X169220757Y-67814284D01*
X169226065Y-67815706D01*
X169226067Y-67815707D01*
X169436598Y-67872119D01*
X169436600Y-67872119D01*
X169441913Y-67873543D01*
X169670000Y-67893498D01*
X169898087Y-67873543D01*
X169903400Y-67872119D01*
X169903402Y-67872119D01*
X170113933Y-67815707D01*
X170113935Y-67815706D01*
X170119243Y-67814284D01*
X170130620Y-67808979D01*
X170321762Y-67719849D01*
X170321767Y-67719846D01*
X170326749Y-67717523D01*
X170434135Y-67642330D01*
X170509789Y-67589357D01*
X170509792Y-67589355D01*
X170514300Y-67586198D01*
X170676198Y-67424300D01*
X170694645Y-67397956D01*
X170773076Y-67285944D01*
X170807523Y-67236749D01*
X170809846Y-67231767D01*
X170809849Y-67231762D01*
X170825805Y-67197543D01*
X170872722Y-67144258D01*
X170940999Y-67124797D01*
X171008959Y-67145339D01*
X171054195Y-67197543D01*
X171070151Y-67231762D01*
X171070154Y-67231767D01*
X171072477Y-67236749D01*
X171106924Y-67285944D01*
X171185356Y-67397956D01*
X171203802Y-67424300D01*
X171365700Y-67586198D01*
X171370208Y-67589355D01*
X171370211Y-67589357D01*
X171445865Y-67642330D01*
X171553251Y-67717523D01*
X171558233Y-67719846D01*
X171558238Y-67719849D01*
X171749380Y-67808979D01*
X171760757Y-67814284D01*
X171766065Y-67815706D01*
X171766067Y-67815707D01*
X171976598Y-67872119D01*
X171976600Y-67872119D01*
X171981913Y-67873543D01*
X172210000Y-67893498D01*
X172438087Y-67873543D01*
X172443400Y-67872119D01*
X172443402Y-67872119D01*
X172653933Y-67815707D01*
X172653935Y-67815706D01*
X172659243Y-67814284D01*
X172670620Y-67808979D01*
X172861762Y-67719849D01*
X172861767Y-67719846D01*
X172866749Y-67717523D01*
X172974135Y-67642330D01*
X173049789Y-67589357D01*
X173049792Y-67589355D01*
X173054300Y-67586198D01*
X173216198Y-67424300D01*
X173234645Y-67397956D01*
X173313076Y-67285944D01*
X173347523Y-67236749D01*
X173349846Y-67231767D01*
X173349849Y-67231762D01*
X173441961Y-67034225D01*
X173441961Y-67034224D01*
X173444284Y-67029243D01*
X173503543Y-66808087D01*
X173523498Y-66580000D01*
X173503543Y-66351913D01*
X173444284Y-66130757D01*
X173349966Y-65928489D01*
X173349849Y-65928238D01*
X173349846Y-65928233D01*
X173347523Y-65923251D01*
X173216198Y-65735700D01*
X173054300Y-65573802D01*
X173049792Y-65570645D01*
X173049789Y-65570643D01*
X172971611Y-65515902D01*
X172866749Y-65442477D01*
X172861767Y-65440154D01*
X172861762Y-65440151D01*
X172664225Y-65348039D01*
X172664224Y-65348039D01*
X172659243Y-65345716D01*
X172653935Y-65344294D01*
X172653933Y-65344293D01*
X172443402Y-65287881D01*
X172443400Y-65287881D01*
X172438087Y-65286457D01*
X172210000Y-65266502D01*
X171981913Y-65286457D01*
X171976600Y-65287881D01*
X171976598Y-65287881D01*
X171766067Y-65344293D01*
X171766065Y-65344294D01*
X171760757Y-65345716D01*
X171755776Y-65348039D01*
X171755775Y-65348039D01*
X171558238Y-65440151D01*
X171558233Y-65440154D01*
X171553251Y-65442477D01*
X171448389Y-65515902D01*
X171370211Y-65570643D01*
X171370208Y-65570645D01*
X171365700Y-65573802D01*
X171203802Y-65735700D01*
X171072477Y-65923251D01*
X171070154Y-65928233D01*
X171070151Y-65928238D01*
X171054195Y-65962457D01*
X171007278Y-66015742D01*
X170939001Y-66035203D01*
X170871041Y-66014661D01*
X170825805Y-65962457D01*
X170809849Y-65928238D01*
X170809846Y-65928233D01*
X170807523Y-65923251D01*
X170676198Y-65735700D01*
X170514300Y-65573802D01*
X170509792Y-65570645D01*
X170509789Y-65570643D01*
X170431611Y-65515902D01*
X170326749Y-65442477D01*
X170321767Y-65440154D01*
X170321762Y-65440151D01*
X170124225Y-65348039D01*
X170124224Y-65348039D01*
X170119243Y-65345716D01*
X170113935Y-65344294D01*
X170113933Y-65344293D01*
X169903402Y-65287881D01*
X169903400Y-65287881D01*
X169898087Y-65286457D01*
X169670000Y-65266502D01*
X169441913Y-65286457D01*
X169436600Y-65287881D01*
X169436598Y-65287881D01*
X169226067Y-65344293D01*
X169226065Y-65344294D01*
X169220757Y-65345716D01*
X169215776Y-65348039D01*
X169215775Y-65348039D01*
X169018238Y-65440151D01*
X169018233Y-65440154D01*
X169013251Y-65442477D01*
X168908389Y-65515902D01*
X168830211Y-65570643D01*
X168830208Y-65570645D01*
X168825700Y-65573802D01*
X168663802Y-65735700D01*
X168532477Y-65923251D01*
X168530154Y-65928233D01*
X168530151Y-65928238D01*
X168514195Y-65962457D01*
X168467278Y-66015742D01*
X168399001Y-66035203D01*
X168331041Y-66014661D01*
X168285805Y-65962457D01*
X168269849Y-65928238D01*
X168269846Y-65928233D01*
X168267523Y-65923251D01*
X168136198Y-65735700D01*
X167974300Y-65573802D01*
X167969792Y-65570645D01*
X167969789Y-65570643D01*
X167891611Y-65515902D01*
X167786749Y-65442477D01*
X167781767Y-65440154D01*
X167781762Y-65440151D01*
X167584225Y-65348039D01*
X167584224Y-65348039D01*
X167579243Y-65345716D01*
X167573935Y-65344294D01*
X167573933Y-65344293D01*
X167363402Y-65287881D01*
X167363400Y-65287881D01*
X167358087Y-65286457D01*
X167130000Y-65266502D01*
X166901913Y-65286457D01*
X166896600Y-65287881D01*
X166896598Y-65287881D01*
X166686067Y-65344293D01*
X166686065Y-65344294D01*
X166680757Y-65345716D01*
X166675776Y-65348039D01*
X166675775Y-65348039D01*
X166478238Y-65440151D01*
X166478233Y-65440154D01*
X166473251Y-65442477D01*
X166368389Y-65515902D01*
X166290211Y-65570643D01*
X166290208Y-65570645D01*
X166285700Y-65573802D01*
X166123802Y-65735700D01*
X165992477Y-65923251D01*
X165990154Y-65928233D01*
X165990151Y-65928238D01*
X165974195Y-65962457D01*
X165927278Y-66015742D01*
X165859001Y-66035203D01*
X165791041Y-66014661D01*
X165745805Y-65962457D01*
X165729849Y-65928238D01*
X165729846Y-65928233D01*
X165727523Y-65923251D01*
X165596198Y-65735700D01*
X165434300Y-65573802D01*
X165429792Y-65570645D01*
X165429789Y-65570643D01*
X165351611Y-65515902D01*
X165246749Y-65442477D01*
X165241767Y-65440154D01*
X165241762Y-65440151D01*
X165044225Y-65348039D01*
X165044224Y-65348039D01*
X165039243Y-65345716D01*
X165033935Y-65344294D01*
X165033933Y-65344293D01*
X164823402Y-65287881D01*
X164823400Y-65287881D01*
X164818087Y-65286457D01*
X164590000Y-65266502D01*
X164361913Y-65286457D01*
X164356600Y-65287881D01*
X164356598Y-65287881D01*
X164146067Y-65344293D01*
X164146065Y-65344294D01*
X164140757Y-65345716D01*
X164135776Y-65348039D01*
X164135775Y-65348039D01*
X163938238Y-65440151D01*
X163938233Y-65440154D01*
X163933251Y-65442477D01*
X163828389Y-65515902D01*
X163750211Y-65570643D01*
X163750208Y-65570645D01*
X163745700Y-65573802D01*
X163583802Y-65735700D01*
X163452477Y-65923251D01*
X163450154Y-65928233D01*
X163450151Y-65928238D01*
X163434195Y-65962457D01*
X163387278Y-66015742D01*
X163319001Y-66035203D01*
X163251041Y-66014661D01*
X163205805Y-65962457D01*
X163189849Y-65928238D01*
X163189846Y-65928233D01*
X163187523Y-65923251D01*
X163056198Y-65735700D01*
X162894300Y-65573802D01*
X162889792Y-65570645D01*
X162889789Y-65570643D01*
X162811611Y-65515902D01*
X162706749Y-65442477D01*
X162701767Y-65440154D01*
X162701762Y-65440151D01*
X162504225Y-65348039D01*
X162504224Y-65348039D01*
X162499243Y-65345716D01*
X162493935Y-65344294D01*
X162493933Y-65344293D01*
X162283402Y-65287881D01*
X162283400Y-65287881D01*
X162278087Y-65286457D01*
X162050000Y-65266502D01*
X161821913Y-65286457D01*
X161816600Y-65287881D01*
X161816598Y-65287881D01*
X161606067Y-65344293D01*
X161606065Y-65344294D01*
X161600757Y-65345716D01*
X161595776Y-65348039D01*
X161595775Y-65348039D01*
X161398238Y-65440151D01*
X161398233Y-65440154D01*
X161393251Y-65442477D01*
X161288389Y-65515902D01*
X161210211Y-65570643D01*
X161210208Y-65570645D01*
X161205700Y-65573802D01*
X161043802Y-65735700D01*
X160912477Y-65923251D01*
X160910154Y-65928233D01*
X160910151Y-65928238D01*
X160894195Y-65962457D01*
X160847278Y-66015742D01*
X160779001Y-66035203D01*
X160711041Y-66014661D01*
X160665805Y-65962457D01*
X160649849Y-65928238D01*
X160649846Y-65928233D01*
X160647523Y-65923251D01*
X160516198Y-65735700D01*
X160354300Y-65573802D01*
X160349792Y-65570645D01*
X160349789Y-65570643D01*
X160271611Y-65515902D01*
X160166749Y-65442477D01*
X160161767Y-65440154D01*
X160161762Y-65440151D01*
X159964225Y-65348039D01*
X159964224Y-65348039D01*
X159959243Y-65345716D01*
X159953935Y-65344294D01*
X159953933Y-65344293D01*
X159743402Y-65287881D01*
X159743400Y-65287881D01*
X159738087Y-65286457D01*
X159510000Y-65266502D01*
X159281913Y-65286457D01*
X159276600Y-65287881D01*
X159276598Y-65287881D01*
X159066067Y-65344293D01*
X159066065Y-65344294D01*
X159060757Y-65345716D01*
X159055776Y-65348039D01*
X159055775Y-65348039D01*
X158858238Y-65440151D01*
X158858233Y-65440154D01*
X158853251Y-65442477D01*
X158748389Y-65515902D01*
X158670211Y-65570643D01*
X158670208Y-65570645D01*
X158665700Y-65573802D01*
X158503802Y-65735700D01*
X158372477Y-65923251D01*
X158370154Y-65928233D01*
X158370151Y-65928238D01*
X158370034Y-65928489D01*
X158275716Y-66130757D01*
X158216457Y-66351913D01*
X158196502Y-66580000D01*
X155743498Y-66580000D01*
X155723543Y-66351913D01*
X155664284Y-66130757D01*
X155569966Y-65928489D01*
X155569849Y-65928238D01*
X155569846Y-65928233D01*
X155567523Y-65923251D01*
X155436198Y-65735700D01*
X155274300Y-65573802D01*
X155269792Y-65570645D01*
X155269789Y-65570643D01*
X155191611Y-65515902D01*
X155086749Y-65442477D01*
X155081767Y-65440154D01*
X155081762Y-65440151D01*
X154884225Y-65348039D01*
X154884224Y-65348039D01*
X154879243Y-65345716D01*
X154873935Y-65344294D01*
X154873933Y-65344293D01*
X154663402Y-65287881D01*
X154663400Y-65287881D01*
X154658087Y-65286457D01*
X154430000Y-65266502D01*
X154201913Y-65286457D01*
X154196600Y-65287881D01*
X154196598Y-65287881D01*
X153986067Y-65344293D01*
X153986065Y-65344294D01*
X153980757Y-65345716D01*
X153975776Y-65348039D01*
X153975775Y-65348039D01*
X153778238Y-65440151D01*
X153778233Y-65440154D01*
X153773251Y-65442477D01*
X153668389Y-65515902D01*
X153590211Y-65570643D01*
X153590208Y-65570645D01*
X153585700Y-65573802D01*
X153423802Y-65735700D01*
X153292477Y-65923251D01*
X153290154Y-65928233D01*
X153290151Y-65928238D01*
X153274195Y-65962457D01*
X153227278Y-66015742D01*
X153159001Y-66035203D01*
X153091041Y-66014661D01*
X153045805Y-65962457D01*
X153029849Y-65928238D01*
X153029846Y-65928233D01*
X153027523Y-65923251D01*
X152896198Y-65735700D01*
X152734300Y-65573802D01*
X152729792Y-65570645D01*
X152729789Y-65570643D01*
X152651611Y-65515902D01*
X152546749Y-65442477D01*
X152541767Y-65440154D01*
X152541762Y-65440151D01*
X152344225Y-65348039D01*
X152344224Y-65348039D01*
X152339243Y-65345716D01*
X152333935Y-65344294D01*
X152333933Y-65344293D01*
X152123402Y-65287881D01*
X152123400Y-65287881D01*
X152118087Y-65286457D01*
X151890000Y-65266502D01*
X151661913Y-65286457D01*
X151656600Y-65287881D01*
X151656598Y-65287881D01*
X151446067Y-65344293D01*
X151446065Y-65344294D01*
X151440757Y-65345716D01*
X151435776Y-65348039D01*
X151435775Y-65348039D01*
X151238238Y-65440151D01*
X151238233Y-65440154D01*
X151233251Y-65442477D01*
X151128389Y-65515902D01*
X151050211Y-65570643D01*
X151050208Y-65570645D01*
X151045700Y-65573802D01*
X150883802Y-65735700D01*
X150752477Y-65923251D01*
X150750154Y-65928233D01*
X150750151Y-65928238D01*
X150733919Y-65963049D01*
X150687002Y-66016334D01*
X150618725Y-66035795D01*
X150550765Y-66015253D01*
X150505529Y-65963049D01*
X150489414Y-65928489D01*
X150483931Y-65918993D01*
X150358972Y-65740533D01*
X150351916Y-65732125D01*
X150197875Y-65578084D01*
X150189467Y-65571028D01*
X150011007Y-65446069D01*
X150001511Y-65440586D01*
X149804053Y-65348510D01*
X149793761Y-65344764D01*
X149621497Y-65298606D01*
X149607401Y-65298942D01*
X149604000Y-65306884D01*
X149604000Y-67847967D01*
X149096000Y-67847967D01*
X149096000Y-65312033D01*
X149092027Y-65298502D01*
X149083478Y-65297273D01*
X148906239Y-65344764D01*
X148895947Y-65348510D01*
X148698489Y-65440586D01*
X148688993Y-65446069D01*
X148510533Y-65571028D01*
X148502125Y-65578084D01*
X148348084Y-65732125D01*
X148341028Y-65740533D01*
X148216069Y-65918993D01*
X148210586Y-65928489D01*
X148194471Y-65963049D01*
X148147554Y-66016334D01*
X148079277Y-66035795D01*
X148011317Y-66015253D01*
X147966081Y-65963049D01*
X147949849Y-65928238D01*
X147949846Y-65928233D01*
X147947523Y-65923251D01*
X147816198Y-65735700D01*
X147654300Y-65573802D01*
X147649792Y-65570645D01*
X147649789Y-65570643D01*
X147571611Y-65515902D01*
X147466749Y-65442477D01*
X147461767Y-65440154D01*
X147461762Y-65440151D01*
X147264225Y-65348039D01*
X147264224Y-65348039D01*
X147259243Y-65345716D01*
X147253935Y-65344294D01*
X147253933Y-65344293D01*
X147043402Y-65287881D01*
X147043400Y-65287881D01*
X147038087Y-65286457D01*
X146810000Y-65266502D01*
X146581913Y-65286457D01*
X146576600Y-65287881D01*
X146576598Y-65287881D01*
X146366067Y-65344293D01*
X146366065Y-65344294D01*
X146360757Y-65345716D01*
X146355776Y-65348039D01*
X146355775Y-65348039D01*
X146158238Y-65440151D01*
X146158233Y-65440154D01*
X146153251Y-65442477D01*
X146048389Y-65515902D01*
X145970211Y-65570643D01*
X145970208Y-65570645D01*
X145965700Y-65573802D01*
X145803802Y-65735700D01*
X145672477Y-65923251D01*
X145670154Y-65928233D01*
X145670151Y-65928238D01*
X145654195Y-65962457D01*
X145607278Y-66015742D01*
X145539001Y-66035203D01*
X145471041Y-66014661D01*
X145425805Y-65962457D01*
X145409849Y-65928238D01*
X145409846Y-65928233D01*
X145407523Y-65923251D01*
X145276198Y-65735700D01*
X145114300Y-65573802D01*
X145109792Y-65570645D01*
X145109789Y-65570643D01*
X145031611Y-65515902D01*
X144926749Y-65442477D01*
X144921767Y-65440154D01*
X144921762Y-65440151D01*
X144724225Y-65348039D01*
X144724224Y-65348039D01*
X144719243Y-65345716D01*
X144713935Y-65344294D01*
X144713933Y-65344293D01*
X144503402Y-65287881D01*
X144503400Y-65287881D01*
X144498087Y-65286457D01*
X144270000Y-65266502D01*
X144041913Y-65286457D01*
X144036600Y-65287881D01*
X144036598Y-65287881D01*
X143826067Y-65344293D01*
X143826065Y-65344294D01*
X143820757Y-65345716D01*
X143815776Y-65348039D01*
X143815775Y-65348039D01*
X143618238Y-65440151D01*
X143618233Y-65440154D01*
X143613251Y-65442477D01*
X143508389Y-65515902D01*
X143430211Y-65570643D01*
X143430208Y-65570645D01*
X143425700Y-65573802D01*
X143263802Y-65735700D01*
X143132477Y-65923251D01*
X143130154Y-65928233D01*
X143130151Y-65928238D01*
X143114195Y-65962457D01*
X143067278Y-66015742D01*
X142999001Y-66035203D01*
X142931041Y-66014661D01*
X142885805Y-65962457D01*
X142869849Y-65928238D01*
X142869846Y-65928233D01*
X142867523Y-65923251D01*
X142736198Y-65735700D01*
X142574300Y-65573802D01*
X142569792Y-65570645D01*
X142569789Y-65570643D01*
X142491611Y-65515902D01*
X142386749Y-65442477D01*
X142381767Y-65440154D01*
X142381762Y-65440151D01*
X142184225Y-65348039D01*
X142184224Y-65348039D01*
X142179243Y-65345716D01*
X142173935Y-65344294D01*
X142173933Y-65344293D01*
X141963402Y-65287881D01*
X141963400Y-65287881D01*
X141958087Y-65286457D01*
X141730000Y-65266502D01*
X141501913Y-65286457D01*
X141496600Y-65287881D01*
X141496598Y-65287881D01*
X141286067Y-65344293D01*
X141286065Y-65344294D01*
X141280757Y-65345716D01*
X141275776Y-65348039D01*
X141275775Y-65348039D01*
X141078238Y-65440151D01*
X141078233Y-65440154D01*
X141073251Y-65442477D01*
X140968389Y-65515902D01*
X140890211Y-65570643D01*
X140890208Y-65570645D01*
X140885700Y-65573802D01*
X140723802Y-65735700D01*
X140592477Y-65923251D01*
X140590154Y-65928233D01*
X140590151Y-65928238D01*
X140574195Y-65962457D01*
X140527278Y-66015742D01*
X140459001Y-66035203D01*
X140391041Y-66014661D01*
X140345805Y-65962457D01*
X140329849Y-65928238D01*
X140329846Y-65928233D01*
X140327523Y-65923251D01*
X140196198Y-65735700D01*
X140034300Y-65573802D01*
X140029792Y-65570645D01*
X140029789Y-65570643D01*
X139951611Y-65515902D01*
X139846749Y-65442477D01*
X139841767Y-65440154D01*
X139841762Y-65440151D01*
X139644225Y-65348039D01*
X139644224Y-65348039D01*
X139639243Y-65345716D01*
X139633935Y-65344294D01*
X139633933Y-65344293D01*
X139423402Y-65287881D01*
X139423400Y-65287881D01*
X139418087Y-65286457D01*
X139190000Y-65266502D01*
X138961913Y-65286457D01*
X138956600Y-65287881D01*
X138956598Y-65287881D01*
X138746067Y-65344293D01*
X138746065Y-65344294D01*
X138740757Y-65345716D01*
X138735776Y-65348039D01*
X138735775Y-65348039D01*
X138538238Y-65440151D01*
X138538233Y-65440154D01*
X138533251Y-65442477D01*
X138428389Y-65515902D01*
X138350211Y-65570643D01*
X138350208Y-65570645D01*
X138345700Y-65573802D01*
X138183802Y-65735700D01*
X138180643Y-65740211D01*
X138177108Y-65744424D01*
X138175974Y-65743473D01*
X138125929Y-65783471D01*
X138055310Y-65790776D01*
X137991951Y-65758742D01*
X137955970Y-65697538D01*
X137952918Y-65680483D01*
X137951745Y-65669684D01*
X137900615Y-65533295D01*
X137813261Y-65416739D01*
X137696705Y-65329385D01*
X137560316Y-65278255D01*
X137498134Y-65271500D01*
X135801866Y-65271500D01*
X135739684Y-65278255D01*
X135603295Y-65329385D01*
X135486739Y-65416739D01*
X135399385Y-65533295D01*
X135348255Y-65669684D01*
X135341500Y-65731866D01*
X135341500Y-67428134D01*
X135348255Y-67490316D01*
X135399385Y-67626705D01*
X135486495Y-67742935D01*
X135511343Y-67809441D01*
X135496290Y-67878824D01*
X135446116Y-67929054D01*
X135385669Y-67944500D01*
X130889020Y-67944500D01*
X130877786Y-67943970D01*
X130870281Y-67942292D01*
X130802571Y-67944420D01*
X130801988Y-67944438D01*
X130798031Y-67944500D01*
X130770017Y-67944500D01*
X130766092Y-67944996D01*
X130766091Y-67944996D01*
X130765996Y-67945008D01*
X130754151Y-67945941D01*
X130724330Y-67946878D01*
X130717718Y-67947086D01*
X130717717Y-67947086D01*
X130709795Y-67947335D01*
X130690252Y-67953013D01*
X130670888Y-67957023D01*
X130658560Y-67958580D01*
X130658558Y-67958580D01*
X130650701Y-67959573D01*
X130643337Y-67962489D01*
X130643332Y-67962490D01*
X130609444Y-67975907D01*
X130598215Y-67979752D01*
X130584241Y-67983812D01*
X130555607Y-67992131D01*
X130548781Y-67996168D01*
X130538091Y-68002490D01*
X130520341Y-68011187D01*
X130501412Y-68018681D01*
X130494996Y-68023342D01*
X130494995Y-68023343D01*
X130465519Y-68044759D01*
X130455595Y-68051278D01*
X130424224Y-68069830D01*
X130424219Y-68069834D01*
X130417401Y-68073866D01*
X130403014Y-68088253D01*
X130387980Y-68101094D01*
X130371513Y-68113058D01*
X130366460Y-68119166D01*
X130343228Y-68147249D01*
X130335238Y-68156029D01*
X123187866Y-75303401D01*
X123179540Y-75310977D01*
X123173046Y-75315098D01*
X123167623Y-75320873D01*
X123126264Y-75364916D01*
X123123509Y-75367758D01*
X123103710Y-75387557D01*
X123101286Y-75390682D01*
X123101278Y-75390691D01*
X123101212Y-75390777D01*
X123093504Y-75399802D01*
X123063132Y-75432145D01*
X123059314Y-75439089D01*
X123059313Y-75439091D01*
X123053327Y-75449980D01*
X123042476Y-75466498D01*
X123029999Y-75482584D01*
X123012373Y-75523317D01*
X123007156Y-75533965D01*
X122985780Y-75572848D01*
X122983809Y-75580523D01*
X122983807Y-75580529D01*
X122980718Y-75592562D01*
X122974315Y-75611264D01*
X122966232Y-75629943D01*
X122964993Y-75637768D01*
X122959289Y-75673778D01*
X122956884Y-75685391D01*
X122945849Y-75728369D01*
X122945849Y-75748716D01*
X122944298Y-75768427D01*
X122941114Y-75788530D01*
X122941860Y-75796422D01*
X122945290Y-75832707D01*
X122945849Y-75844565D01*
X122945849Y-86703500D01*
X122925847Y-86771621D01*
X122872191Y-86818114D01*
X122819849Y-86829500D01*
X122733215Y-86829500D01*
X122671033Y-86836255D01*
X122534644Y-86887385D01*
X122418088Y-86974739D01*
X122330734Y-87091295D01*
X122279604Y-87227684D01*
X122272849Y-87289866D01*
X122272849Y-88986134D01*
X122279604Y-89048316D01*
X122330734Y-89184705D01*
X122418088Y-89301261D01*
X122534644Y-89388615D01*
X122671033Y-89439745D01*
X122733215Y-89446500D01*
X122733148Y-89447114D01*
X122797406Y-89469830D01*
X122840925Y-89525925D01*
X122849644Y-89571982D01*
X122849644Y-93942500D01*
X122829642Y-94010621D01*
X122775986Y-94057114D01*
X122723644Y-94068500D01*
X122637010Y-94068500D01*
X122574828Y-94075255D01*
X122438439Y-94126385D01*
X122321883Y-94213739D01*
X122234529Y-94330295D01*
X122183399Y-94466684D01*
X122176644Y-94528866D01*
X122176644Y-96225134D01*
X122183399Y-96287316D01*
X122234529Y-96423705D01*
X122321883Y-96540261D01*
X122438439Y-96627615D01*
X122574828Y-96678745D01*
X122637010Y-96685500D01*
X122728500Y-96685500D01*
X122796621Y-96705502D01*
X122843114Y-96759158D01*
X122854500Y-96811500D01*
X122854500Y-97237733D01*
X122834498Y-97305854D01*
X122786680Y-97349496D01*
X122763607Y-97361507D01*
X122759474Y-97364610D01*
X122759471Y-97364612D01*
X122676450Y-97426946D01*
X122584965Y-97495635D01*
X122430629Y-97657138D01*
X122304743Y-97841680D01*
X122210688Y-98044305D01*
X122150989Y-98259570D01*
X122127251Y-98481695D01*
X122140110Y-98704715D01*
X122141247Y-98709761D01*
X122141248Y-98709767D01*
X122158680Y-98787115D01*
X122189222Y-98922639D01*
X122273266Y-99129616D01*
X122389987Y-99320088D01*
X122536250Y-99488938D01*
X122708126Y-99631632D01*
X122778595Y-99672811D01*
X122781445Y-99674476D01*
X122830169Y-99726114D01*
X122843240Y-99795897D01*
X122816509Y-99861669D01*
X122776055Y-99895027D01*
X122763607Y-99901507D01*
X122759474Y-99904610D01*
X122759471Y-99904612D01*
X122589100Y-100032530D01*
X122584965Y-100035635D01*
X122430629Y-100197138D01*
X122304743Y-100381680D01*
X122289386Y-100414765D01*
X122215071Y-100574863D01*
X122210688Y-100584305D01*
X122150989Y-100799570D01*
X122127251Y-101021695D01*
X122140110Y-101244715D01*
X122141247Y-101249761D01*
X122141248Y-101249767D01*
X122172933Y-101390360D01*
X122168397Y-101461212D01*
X122139111Y-101507156D01*
X120002517Y-103643750D01*
X119994191Y-103651326D01*
X119987697Y-103655447D01*
X119982274Y-103661222D01*
X119940915Y-103705265D01*
X119938160Y-103708107D01*
X119918361Y-103727906D01*
X119915937Y-103731031D01*
X119915929Y-103731040D01*
X119915863Y-103731126D01*
X119908155Y-103740151D01*
X119877783Y-103772494D01*
X119873965Y-103779438D01*
X119873964Y-103779440D01*
X119867978Y-103790329D01*
X119857127Y-103806847D01*
X119844650Y-103822933D01*
X119827024Y-103863666D01*
X119821807Y-103874314D01*
X119800431Y-103913197D01*
X119798460Y-103920872D01*
X119798458Y-103920878D01*
X119795369Y-103932911D01*
X119788966Y-103951613D01*
X119780883Y-103970292D01*
X119779644Y-103978117D01*
X119773940Y-104014127D01*
X119771535Y-104025740D01*
X119760500Y-104068718D01*
X119760500Y-104089065D01*
X119758949Y-104108776D01*
X119755765Y-104128879D01*
X119380500Y-104128879D01*
X119380500Y-61848500D01*
X119400502Y-61780379D01*
X119454158Y-61733886D01*
X119506500Y-61722500D01*
X175133500Y-61722500D01*
X175201621Y-61742502D01*
G37*
%TD.AperFunction*%
%TD*%
M02*
