M48
; DRILL file {KiCad (6.0.9-0)} date 2022 November 25, Friday 12:00:21
; FORMAT={-:-/ absolute / metric / decimal}
; #@! TF.CreationDate,2022-11-25T12:00:21+04:00
; #@! TF.GenerationSoftware,Kicad,Pcbnew,(6.0.9-0)
; #@! TF.FileFunction,MixedPlating,1,2
FMAT,2
METRIC
; #@! TA.AperFunction,Plated,PTH,ComponentDrill
T1C0.800
; #@! TA.AperFunction,Plated,PTH,ViaDrill
T2C1.000
; #@! TA.AperFunction,Plated,PTH,ComponentDrill
T3C1.000
%
G90
G05
T1
X123.485Y-95.377
X123.581Y-88.138
X125.985Y-95.377
X128.581Y-88.138
T2
X135.89Y-110.49
X139.7Y-110.49
T3
X123.49Y-98.515
X123.49Y-101.055
X123.49Y-103.595
X123.49Y-106.135
X126.03Y-98.515
X126.03Y-101.055
X126.03Y-103.595
X126.03Y-106.135
X127.51Y-114.84
X130.05Y-114.84
X132.59Y-114.84
X135.13Y-114.84
X136.65Y-66.58
X137.67Y-114.84
X139.19Y-66.58
X140.21Y-114.84
X141.73Y-66.58
X142.75Y-114.84
X144.27Y-66.58
X145.29Y-114.84
X146.81Y-66.58
X147.83Y-114.84
X149.35Y-66.58
X150.37Y-114.84
X151.89Y-66.58
X154.43Y-66.58
X154.43Y-114.84
X156.97Y-114.84
X159.51Y-66.58
X159.51Y-114.84
X162.05Y-66.58
X162.05Y-114.84
X164.59Y-66.58
X164.59Y-114.84
X167.13Y-66.58
X167.13Y-114.84
X169.67Y-66.58
X169.67Y-114.84
X172.21Y-66.58
X172.21Y-114.84
T0
M30
