%TF.GenerationSoftware,KiCad,Pcbnew,(6.0.10)*%
%TF.CreationDate,2023-02-13T14:00:59+04:00*%
%TF.ProjectId,servoShield,73657276-6f53-4686-9965-6c642e6b6963,rev?*%
%TF.SameCoordinates,Original*%
%TF.FileFunction,Soldermask,Bot*%
%TF.FilePolarity,Negative*%
%FSLAX46Y46*%
G04 Gerber Fmt 4.6, Leading zero omitted, Abs format (unit mm)*
G04 Created by KiCad (PCBNEW (6.0.10)) date 2023-02-13 14:00:59*
%MOMM*%
%LPD*%
G01*
G04 APERTURE LIST*
%ADD10R,1.700000X1.700000*%
%ADD11O,1.700000X1.700000*%
%ADD12R,2.000000X2.000000*%
%ADD13C,2.000000*%
%ADD14R,2.600000X2.600000*%
%ADD15C,2.600000*%
%ADD16O,2.040000X5.000000*%
G04 APERTURE END LIST*
D10*
%TO.C,M3*%
X118110000Y-63500000D03*
D11*
X115570000Y-63500000D03*
X113030000Y-63500000D03*
%TD*%
D10*
%TO.C,M1*%
X118095000Y-72390000D03*
D11*
X115555000Y-72390000D03*
X113015000Y-72390000D03*
%TD*%
D10*
%TO.C,M2*%
X118095000Y-68072000D03*
D11*
X115555000Y-68072000D03*
X113015000Y-68072000D03*
%TD*%
D10*
%TO.C,M8*%
X136637000Y-45466000D03*
D11*
X134097000Y-45466000D03*
X131557000Y-45466000D03*
%TD*%
D10*
%TO.C,M4*%
X118110000Y-58420000D03*
D11*
X115570000Y-58420000D03*
X113030000Y-58420000D03*
%TD*%
D10*
%TO.C,M6*%
X118110000Y-48260000D03*
D11*
X115570000Y-48260000D03*
X113030000Y-48260000D03*
%TD*%
D10*
%TO.C,M7*%
X136637000Y-50800000D03*
D11*
X134097000Y-50800000D03*
X131557000Y-50800000D03*
%TD*%
D12*
%TO.C,C1*%
X127254000Y-35560000D03*
D13*
X127254000Y-40560000D03*
%TD*%
D14*
%TO.C,BT1*%
X115824000Y-35560000D03*
D15*
X115824000Y-40640000D03*
%TD*%
D10*
%TO.C,M5*%
X118110000Y-53340000D03*
D11*
X115570000Y-53340000D03*
X113030000Y-53340000D03*
%TD*%
D16*
%TO.C,A1*%
X151026809Y-30218001D03*
X148486809Y-30218001D03*
X145946809Y-30218001D03*
X143406809Y-30218001D03*
X140866809Y-30218001D03*
X138326809Y-30218001D03*
X135786809Y-30218001D03*
X133246809Y-30218001D03*
X128166809Y-30218001D03*
X125626809Y-30218001D03*
X123086809Y-30218001D03*
X120546809Y-30218001D03*
X118006809Y-30218001D03*
X115466809Y-30218001D03*
X115466809Y-77478001D03*
X118006809Y-77478001D03*
X120546809Y-77478001D03*
X123086809Y-77478001D03*
X125626809Y-77478001D03*
X128166809Y-77478001D03*
X130706809Y-77478001D03*
X133246809Y-77478001D03*
X137306809Y-77478001D03*
X139846809Y-77478001D03*
X142386809Y-77478001D03*
X144926809Y-77478001D03*
X147466809Y-77478001D03*
X150006809Y-77478001D03*
X152546809Y-77478001D03*
X155086809Y-77478001D03*
X157626809Y-77478001D03*
X160166809Y-77478001D03*
%TD*%
M02*
