%TF.GenerationSoftware,KiCad,Pcbnew,(6.0.10)*%
%TF.CreationDate,2023-02-13T14:00:59+04:00*%
%TF.ProjectId,servoShield,73657276-6f53-4686-9965-6c642e6b6963,rev?*%
%TF.SameCoordinates,Original*%
%TF.FileFunction,Copper,L2,Bot*%
%TF.FilePolarity,Positive*%
%FSLAX46Y46*%
G04 Gerber Fmt 4.6, Leading zero omitted, Abs format (unit mm)*
G04 Created by KiCad (PCBNEW (6.0.10)) date 2023-02-13 14:00:59*
%MOMM*%
%LPD*%
G01*
G04 APERTURE LIST*
%TA.AperFunction,ComponentPad*%
%ADD10R,1.700000X1.700000*%
%TD*%
%TA.AperFunction,ComponentPad*%
%ADD11O,1.700000X1.700000*%
%TD*%
%TA.AperFunction,ComponentPad*%
%ADD12R,2.000000X2.000000*%
%TD*%
%TA.AperFunction,ComponentPad*%
%ADD13C,2.000000*%
%TD*%
%TA.AperFunction,ComponentPad*%
%ADD14R,2.600000X2.600000*%
%TD*%
%TA.AperFunction,ComponentPad*%
%ADD15C,2.600000*%
%TD*%
%TA.AperFunction,ComponentPad*%
%ADD16O,2.040000X5.000000*%
%TD*%
%TA.AperFunction,Conductor*%
%ADD17C,1.600000*%
%TD*%
G04 APERTURE END LIST*
D10*
%TO.P,M3,1,PWM*%
%TO.N,Net-(A1-Pad22)*%
X118110000Y-63500000D03*
D11*
%TO.P,M3,2,+*%
%TO.N,Net-(BT1-Pad1)*%
X115570000Y-63500000D03*
%TO.P,M3,3,-*%
%TO.N,GND*%
X113030000Y-63500000D03*
%TD*%
D10*
%TO.P,M1,1,PWM*%
%TO.N,Net-(A1-Pad17)*%
X118095000Y-72390000D03*
D11*
%TO.P,M1,2,+*%
%TO.N,Net-(BT1-Pad1)*%
X115555000Y-72390000D03*
%TO.P,M1,3,-*%
%TO.N,GND*%
X113015000Y-72390000D03*
%TD*%
D10*
%TO.P,M2,1,PWM*%
%TO.N,Net-(A1-Pad19)*%
X118095000Y-68072000D03*
D11*
%TO.P,M2,2,+*%
%TO.N,Net-(BT1-Pad1)*%
X115555000Y-68072000D03*
%TO.P,M2,3,-*%
%TO.N,GND*%
X113015000Y-68072000D03*
%TD*%
D10*
%TO.P,M8,1,PWM*%
%TO.N,Net-(A1-Pad28)*%
X136637000Y-45466000D03*
D11*
%TO.P,M8,2,+*%
%TO.N,Net-(BT1-Pad1)*%
X134097000Y-45466000D03*
%TO.P,M8,3,-*%
%TO.N,GND*%
X131557000Y-45466000D03*
%TD*%
D10*
%TO.P,M4,1,PWM*%
%TO.N,Net-(A1-Pad23)*%
X118110000Y-58420000D03*
D11*
%TO.P,M4,2,+*%
%TO.N,Net-(BT1-Pad1)*%
X115570000Y-58420000D03*
%TO.P,M4,3,-*%
%TO.N,GND*%
X113030000Y-58420000D03*
%TD*%
D10*
%TO.P,M6,1,PWM*%
%TO.N,Net-(A1-Pad25)*%
X118110000Y-48260000D03*
D11*
%TO.P,M6,2,+*%
%TO.N,Net-(BT1-Pad1)*%
X115570000Y-48260000D03*
%TO.P,M6,3,-*%
%TO.N,GND*%
X113030000Y-48260000D03*
%TD*%
D10*
%TO.P,M7,1,PWM*%
%TO.N,Net-(A1-Pad27)*%
X136637000Y-50800000D03*
D11*
%TO.P,M7,2,+*%
%TO.N,Net-(BT1-Pad1)*%
X134097000Y-50800000D03*
%TO.P,M7,3,-*%
%TO.N,GND*%
X131557000Y-50800000D03*
%TD*%
D12*
%TO.P,C1,1*%
%TO.N,Net-(BT1-Pad1)*%
X127254000Y-35560000D03*
D13*
%TO.P,C1,2*%
%TO.N,GND*%
X127254000Y-40560000D03*
%TD*%
D14*
%TO.P,BT1,1,+*%
%TO.N,Net-(BT1-Pad1)*%
X115824000Y-35560000D03*
D15*
%TO.P,BT1,2,-*%
%TO.N,GND*%
X115824000Y-40640000D03*
%TD*%
D10*
%TO.P,M5,1,PWM*%
%TO.N,Net-(A1-Pad24)*%
X118110000Y-53340000D03*
D11*
%TO.P,M5,2,+*%
%TO.N,Net-(BT1-Pad1)*%
X115570000Y-53340000D03*
%TO.P,M5,3,-*%
%TO.N,GND*%
X113030000Y-53340000D03*
%TD*%
D16*
%TO.P,A1,1,NC*%
%TO.N,unconnected-(A1-Pad1)*%
X151026809Y-30218001D03*
%TO.P,A1,2,IOREF*%
%TO.N,unconnected-(A1-Pad2)*%
X148486809Y-30218001D03*
%TO.P,A1,3,~{RESET}*%
%TO.N,unconnected-(A1-Pad3)*%
X145946809Y-30218001D03*
%TO.P,A1,4,3V3*%
%TO.N,unconnected-(A1-Pad4)*%
X143406809Y-30218001D03*
%TO.P,A1,5,+5V*%
%TO.N,unconnected-(A1-Pad5)*%
X140866809Y-30218001D03*
%TO.P,A1,6,GND*%
%TO.N,GND*%
X138326809Y-30218001D03*
%TO.P,A1,7,GND*%
X135786809Y-30218001D03*
%TO.P,A1,8,VIN*%
%TO.N,unconnected-(A1-Pad8)*%
X133246809Y-30218001D03*
%TO.P,A1,9,A0*%
%TO.N,unconnected-(A1-Pad9)*%
X128166809Y-30218001D03*
%TO.P,A1,10,A1*%
%TO.N,unconnected-(A1-Pad10)*%
X125626809Y-30218001D03*
%TO.P,A1,11,A2*%
%TO.N,unconnected-(A1-Pad11)*%
X123086809Y-30218001D03*
%TO.P,A1,12,A3*%
%TO.N,unconnected-(A1-Pad12)*%
X120546809Y-30218001D03*
%TO.P,A1,13,SDA/A4*%
%TO.N,unconnected-(A1-Pad13)*%
X118006809Y-30218001D03*
%TO.P,A1,14,SCL/A5*%
%TO.N,unconnected-(A1-Pad14)*%
X115466809Y-30218001D03*
%TO.P,A1,15,D0/RX*%
%TO.N,unconnected-(A1-Pad15)*%
X115466809Y-77478001D03*
%TO.P,A1,16,D1/TX*%
%TO.N,unconnected-(A1-Pad16)*%
X118006809Y-77478001D03*
%TO.P,A1,17,D2*%
%TO.N,Net-(A1-Pad17)*%
X120546809Y-77478001D03*
%TO.P,A1,18,D3*%
%TO.N,unconnected-(A1-Pad18)*%
X123086809Y-77478001D03*
%TO.P,A1,19,D4*%
%TO.N,Net-(A1-Pad19)*%
X125626809Y-77478001D03*
%TO.P,A1,20,D5*%
%TO.N,unconnected-(A1-Pad20)*%
X128166809Y-77478001D03*
%TO.P,A1,21,D6*%
%TO.N,unconnected-(A1-Pad21)*%
X130706809Y-77478001D03*
%TO.P,A1,22,D7*%
%TO.N,Net-(A1-Pad22)*%
X133246809Y-77478001D03*
%TO.P,A1,23,D8*%
%TO.N,Net-(A1-Pad23)*%
X137306809Y-77478001D03*
%TO.P,A1,24,D9*%
%TO.N,Net-(A1-Pad24)*%
X139846809Y-77478001D03*
%TO.P,A1,25,D10*%
%TO.N,Net-(A1-Pad25)*%
X142386809Y-77478001D03*
%TO.P,A1,26,D11*%
%TO.N,unconnected-(A1-Pad26)*%
X144926809Y-77478001D03*
%TO.P,A1,27,D12*%
%TO.N,Net-(A1-Pad27)*%
X147466809Y-77478001D03*
%TO.P,A1,28,D13*%
%TO.N,Net-(A1-Pad28)*%
X150006809Y-77478001D03*
%TO.P,A1,29,GND*%
%TO.N,GND*%
X152546809Y-77478001D03*
%TO.P,A1,30,AREF*%
%TO.N,unconnected-(A1-Pad30)*%
X155086809Y-77478001D03*
%TO.P,A1,31,SDA/A4*%
%TO.N,unconnected-(A1-Pad31)*%
X157626809Y-77478001D03*
%TO.P,A1,32,SCL/A5*%
%TO.N,unconnected-(A1-Pad32)*%
X160166809Y-77478001D03*
%TD*%
D17*
%TO.N,Net-(BT1-Pad1)*%
X118872000Y-44450000D02*
X115824000Y-44450000D01*
X115824000Y-44450000D02*
X115555000Y-44719000D01*
X130048000Y-54610000D02*
X119380000Y-43942000D01*
X120650000Y-42672000D02*
X119888000Y-43434000D01*
X120650000Y-35560000D02*
X120650000Y-42672000D01*
X134097000Y-52593000D02*
X132080000Y-54610000D01*
X134097000Y-50800000D02*
X134097000Y-52593000D01*
X119380000Y-43942000D02*
X118872000Y-44450000D01*
X132080000Y-54610000D02*
X130048000Y-54610000D01*
X120650000Y-35560000D02*
X127254000Y-35560000D01*
X115824000Y-35560000D02*
X120650000Y-35560000D01*
X119888000Y-43434000D02*
X119380000Y-43942000D01*
X115555000Y-44719000D02*
X115555000Y-72390000D01*
X134097000Y-45466000D02*
X134097000Y-50800000D01*
%TO.N,Net-(A1-Pad17)*%
X120546809Y-77978001D02*
X120546809Y-74841809D01*
X120546809Y-74841809D02*
X118095000Y-72390000D01*
%TO.N,Net-(A1-Pad19)*%
X125626809Y-73556809D02*
X120650000Y-68580000D01*
X120650000Y-68580000D02*
X118110000Y-68580000D01*
X125626809Y-77978001D02*
X125626809Y-73556809D01*
%TO.N,Net-(A1-Pad22)*%
X119380000Y-63500000D02*
X121065519Y-63500000D01*
X121065519Y-63500000D02*
X133246809Y-75681290D01*
X133246809Y-75681290D02*
X133246809Y-77978001D01*
%TO.N,Net-(A1-Pad23)*%
X137306809Y-76346809D02*
X119380000Y-58420000D01*
X119380000Y-58420000D02*
X118110000Y-58420000D01*
X137306809Y-77978001D02*
X137306809Y-76346809D01*
%TO.N,Net-(A1-Pad24)*%
X139846809Y-75076809D02*
X118110000Y-53340000D01*
X139846809Y-77978001D02*
X139846809Y-75076809D01*
%TO.N,Net-(A1-Pad25)*%
X118110000Y-48260000D02*
X142494000Y-72644000D01*
X142386809Y-72751191D02*
X142386809Y-77978001D01*
X142494000Y-72644000D02*
X142386809Y-72751191D01*
%TO.N,Net-(A1-Pad27)*%
X137414000Y-50800000D02*
X136637000Y-50800000D01*
X147320000Y-60706000D02*
X137414000Y-50800000D01*
X147320000Y-77831192D02*
X147320000Y-60706000D01*
X147466809Y-77978001D02*
X147320000Y-77831192D01*
%TO.N,Net-(A1-Pad28)*%
X138938000Y-45466000D02*
X136637000Y-45466000D01*
X150114000Y-76454000D02*
X150114000Y-56642000D01*
X150006809Y-77978001D02*
X150006809Y-76561191D01*
X150006809Y-76561191D02*
X150114000Y-76454000D01*
X150114000Y-56642000D02*
X138938000Y-45466000D01*
%TD*%
%TA.AperFunction,Conductor*%
%TO.N,GND*%
G36*
X114374177Y-27452502D02*
G01*
X114420670Y-27506158D01*
X114430774Y-27576432D01*
X114401280Y-27641012D01*
X114392629Y-27650048D01*
X114330902Y-27708421D01*
X114327216Y-27711907D01*
X114324138Y-27715933D01*
X114324137Y-27715934D01*
X114260233Y-27799518D01*
X114177823Y-27907306D01*
X114061591Y-28124077D01*
X113981513Y-28356642D01*
X113939647Y-28599018D01*
X113938309Y-28628484D01*
X113938309Y-31759810D01*
X113938511Y-31762318D01*
X113938511Y-31762323D01*
X113944833Y-31840891D01*
X113953062Y-31943174D01*
X114011733Y-32182040D01*
X114107840Y-32408453D01*
X114238909Y-32616588D01*
X114401569Y-32801089D01*
X114591635Y-32957211D01*
X114596003Y-32959753D01*
X114799068Y-33077940D01*
X114804217Y-33080937D01*
X114808940Y-33082750D01*
X115029117Y-33167268D01*
X115029120Y-33167269D01*
X115033846Y-33169083D01*
X115274614Y-33219382D01*
X115279663Y-33219611D01*
X115279669Y-33219612D01*
X115391788Y-33224703D01*
X115520326Y-33230540D01*
X115525346Y-33229959D01*
X115525350Y-33229959D01*
X115759635Y-33202851D01*
X115759639Y-33202850D01*
X115764662Y-33202269D01*
X115769527Y-33200892D01*
X115769529Y-33200892D01*
X115996472Y-33136674D01*
X115996471Y-33136674D01*
X116001335Y-33135298D01*
X116224256Y-33031348D01*
X116228432Y-33028510D01*
X116228439Y-33028506D01*
X116423502Y-32895941D01*
X116423506Y-32895938D01*
X116427689Y-32893095D01*
X116606402Y-32724095D01*
X116637374Y-32683586D01*
X116694638Y-32641619D01*
X116765501Y-32637273D01*
X116831983Y-32676788D01*
X116941569Y-32801089D01*
X117131635Y-32957211D01*
X117136003Y-32959753D01*
X117339068Y-33077940D01*
X117344217Y-33080937D01*
X117348940Y-33082750D01*
X117569117Y-33167268D01*
X117569120Y-33167269D01*
X117573846Y-33169083D01*
X117814614Y-33219382D01*
X117819663Y-33219611D01*
X117819669Y-33219612D01*
X117931788Y-33224703D01*
X118060326Y-33230540D01*
X118065346Y-33229959D01*
X118065350Y-33229959D01*
X118299635Y-33202851D01*
X118299639Y-33202850D01*
X118304662Y-33202269D01*
X118309527Y-33200892D01*
X118309529Y-33200892D01*
X118536472Y-33136674D01*
X118536471Y-33136674D01*
X118541335Y-33135298D01*
X118764256Y-33031348D01*
X118768432Y-33028510D01*
X118768439Y-33028506D01*
X118963502Y-32895941D01*
X118963506Y-32895938D01*
X118967689Y-32893095D01*
X119146402Y-32724095D01*
X119177374Y-32683586D01*
X119234638Y-32641619D01*
X119305501Y-32637273D01*
X119371983Y-32676788D01*
X119481569Y-32801089D01*
X119671635Y-32957211D01*
X119676003Y-32959753D01*
X119879068Y-33077940D01*
X119884217Y-33080937D01*
X119888940Y-33082750D01*
X120109117Y-33167268D01*
X120109120Y-33167269D01*
X120113846Y-33169083D01*
X120354614Y-33219382D01*
X120359663Y-33219611D01*
X120359669Y-33219612D01*
X120471788Y-33224703D01*
X120600326Y-33230540D01*
X120605346Y-33229959D01*
X120605350Y-33229959D01*
X120839635Y-33202851D01*
X120839639Y-33202850D01*
X120844662Y-33202269D01*
X120849527Y-33200892D01*
X120849529Y-33200892D01*
X121076472Y-33136674D01*
X121076471Y-33136674D01*
X121081335Y-33135298D01*
X121304256Y-33031348D01*
X121308432Y-33028510D01*
X121308439Y-33028506D01*
X121503502Y-32895941D01*
X121503506Y-32895938D01*
X121507689Y-32893095D01*
X121686402Y-32724095D01*
X121717374Y-32683586D01*
X121774638Y-32641619D01*
X121845501Y-32637273D01*
X121911983Y-32676788D01*
X122021569Y-32801089D01*
X122211635Y-32957211D01*
X122216003Y-32959753D01*
X122419068Y-33077940D01*
X122424217Y-33080937D01*
X122428940Y-33082750D01*
X122649117Y-33167268D01*
X122649120Y-33167269D01*
X122653846Y-33169083D01*
X122894614Y-33219382D01*
X122899663Y-33219611D01*
X122899669Y-33219612D01*
X123011788Y-33224703D01*
X123140326Y-33230540D01*
X123145346Y-33229959D01*
X123145350Y-33229959D01*
X123379635Y-33202851D01*
X123379639Y-33202850D01*
X123384662Y-33202269D01*
X123389527Y-33200892D01*
X123389529Y-33200892D01*
X123616472Y-33136674D01*
X123616471Y-33136674D01*
X123621335Y-33135298D01*
X123844256Y-33031348D01*
X123848432Y-33028510D01*
X123848439Y-33028506D01*
X124043502Y-32895941D01*
X124043506Y-32895938D01*
X124047689Y-32893095D01*
X124226402Y-32724095D01*
X124257374Y-32683586D01*
X124314638Y-32641619D01*
X124385501Y-32637273D01*
X124451983Y-32676788D01*
X124561569Y-32801089D01*
X124751635Y-32957211D01*
X124756003Y-32959753D01*
X124959068Y-33077940D01*
X124964217Y-33080937D01*
X124968940Y-33082750D01*
X125189117Y-33167268D01*
X125189120Y-33167269D01*
X125193846Y-33169083D01*
X125434614Y-33219382D01*
X125439663Y-33219611D01*
X125439669Y-33219612D01*
X125551788Y-33224703D01*
X125680326Y-33230540D01*
X125685346Y-33229959D01*
X125685350Y-33229959D01*
X125919635Y-33202851D01*
X125919639Y-33202850D01*
X125924662Y-33202269D01*
X125929527Y-33200892D01*
X125929529Y-33200892D01*
X126156472Y-33136674D01*
X126156471Y-33136674D01*
X126161335Y-33135298D01*
X126384256Y-33031348D01*
X126388432Y-33028510D01*
X126388439Y-33028506D01*
X126583502Y-32895941D01*
X126583506Y-32895938D01*
X126587689Y-32893095D01*
X126766402Y-32724095D01*
X126797374Y-32683586D01*
X126854638Y-32641619D01*
X126925501Y-32637273D01*
X126991983Y-32676788D01*
X127101569Y-32801089D01*
X127291635Y-32957211D01*
X127296003Y-32959753D01*
X127499068Y-33077940D01*
X127504217Y-33080937D01*
X127508940Y-33082750D01*
X127729117Y-33167268D01*
X127729120Y-33167269D01*
X127733846Y-33169083D01*
X127974614Y-33219382D01*
X127979663Y-33219611D01*
X127979669Y-33219612D01*
X128091788Y-33224703D01*
X128220326Y-33230540D01*
X128225346Y-33229959D01*
X128225350Y-33229959D01*
X128459635Y-33202851D01*
X128459639Y-33202850D01*
X128464662Y-33202269D01*
X128469527Y-33200892D01*
X128469529Y-33200892D01*
X128696472Y-33136674D01*
X128696471Y-33136674D01*
X128701335Y-33135298D01*
X128924256Y-33031348D01*
X128928432Y-33028510D01*
X128928439Y-33028506D01*
X129123502Y-32895941D01*
X129123506Y-32895938D01*
X129127689Y-32893095D01*
X129306402Y-32724095D01*
X129337685Y-32683179D01*
X129452717Y-32532722D01*
X129452717Y-32532721D01*
X129455795Y-32528696D01*
X129572027Y-32311925D01*
X129652105Y-32079360D01*
X129693971Y-31836984D01*
X129695309Y-31807518D01*
X129695309Y-28676192D01*
X129695107Y-28673679D01*
X129680962Y-28497869D01*
X129680961Y-28497864D01*
X129680556Y-28492828D01*
X129621885Y-28253962D01*
X129525778Y-28027549D01*
X129394709Y-27819414D01*
X129303479Y-27715934D01*
X129238143Y-27641825D01*
X129208098Y-27577500D01*
X129217599Y-27507142D01*
X129263631Y-27453090D01*
X129332657Y-27432500D01*
X132086056Y-27432500D01*
X132154177Y-27452502D01*
X132200670Y-27506158D01*
X132210774Y-27576432D01*
X132181280Y-27641012D01*
X132172629Y-27650048D01*
X132110902Y-27708421D01*
X132107216Y-27711907D01*
X132104138Y-27715933D01*
X132104137Y-27715934D01*
X132040233Y-27799518D01*
X131957823Y-27907306D01*
X131841591Y-28124077D01*
X131761513Y-28356642D01*
X131719647Y-28599018D01*
X131718309Y-28628484D01*
X131718309Y-31759810D01*
X131718511Y-31762318D01*
X131718511Y-31762323D01*
X131724833Y-31840891D01*
X131733062Y-31943174D01*
X131791733Y-32182040D01*
X131887840Y-32408453D01*
X132018909Y-32616588D01*
X132181569Y-32801089D01*
X132371635Y-32957211D01*
X132376003Y-32959753D01*
X132579068Y-33077940D01*
X132584217Y-33080937D01*
X132588940Y-33082750D01*
X132809117Y-33167268D01*
X132809120Y-33167269D01*
X132813846Y-33169083D01*
X133054614Y-33219382D01*
X133059663Y-33219611D01*
X133059669Y-33219612D01*
X133171788Y-33224703D01*
X133300326Y-33230540D01*
X133305346Y-33229959D01*
X133305350Y-33229959D01*
X133539635Y-33202851D01*
X133539639Y-33202850D01*
X133544662Y-33202269D01*
X133549527Y-33200892D01*
X133549529Y-33200892D01*
X133776472Y-33136674D01*
X133776471Y-33136674D01*
X133781335Y-33135298D01*
X134004256Y-33031348D01*
X134008432Y-33028510D01*
X134008439Y-33028506D01*
X134203502Y-32895941D01*
X134203506Y-32895938D01*
X134207689Y-32893095D01*
X134386402Y-32724095D01*
X134417685Y-32683178D01*
X134474949Y-32641212D01*
X134545812Y-32636867D01*
X134612294Y-32676384D01*
X134718574Y-32796935D01*
X134725826Y-32803938D01*
X134908012Y-32953587D01*
X134916290Y-32959341D01*
X135120063Y-33077940D01*
X135129158Y-33082297D01*
X135349268Y-33166790D01*
X135358940Y-33169636D01*
X135515073Y-33202254D01*
X135529134Y-33201131D01*
X135532809Y-33191023D01*
X135532809Y-33188725D01*
X136040809Y-33188725D01*
X136044945Y-33202811D01*
X136057923Y-33204860D01*
X136079543Y-33202358D01*
X136089433Y-33200399D01*
X136316291Y-33136205D01*
X136325742Y-33132690D01*
X136539426Y-33033049D01*
X136548190Y-33028070D01*
X136743186Y-32895549D01*
X136751051Y-32889225D01*
X136922348Y-32727239D01*
X136929102Y-32719737D01*
X136957346Y-32682796D01*
X137014611Y-32640829D01*
X137085474Y-32636484D01*
X137151956Y-32676001D01*
X137258574Y-32796935D01*
X137265826Y-32803938D01*
X137448012Y-32953587D01*
X137456290Y-32959341D01*
X137660063Y-33077940D01*
X137669158Y-33082297D01*
X137889268Y-33166790D01*
X137898940Y-33169636D01*
X138055073Y-33202254D01*
X138069134Y-33201131D01*
X138072809Y-33191023D01*
X138072809Y-30490116D01*
X138068334Y-30474877D01*
X138066944Y-30473672D01*
X138059261Y-30472001D01*
X136058924Y-30472001D01*
X136043685Y-30476476D01*
X136042480Y-30477866D01*
X136040809Y-30485549D01*
X136040809Y-33188725D01*
X135532809Y-33188725D01*
X135532809Y-30090001D01*
X135552811Y-30021880D01*
X135606467Y-29975387D01*
X135658809Y-29964001D01*
X138454809Y-29964001D01*
X138522930Y-29984003D01*
X138569423Y-30037659D01*
X138580809Y-30090001D01*
X138580809Y-33188725D01*
X138584945Y-33202811D01*
X138597923Y-33204860D01*
X138619543Y-33202358D01*
X138629433Y-33200399D01*
X138856291Y-33136205D01*
X138865742Y-33132690D01*
X139079426Y-33033049D01*
X139088190Y-33028070D01*
X139283186Y-32895549D01*
X139291051Y-32889225D01*
X139462348Y-32727239D01*
X139469107Y-32719732D01*
X139497036Y-32683202D01*
X139554300Y-32641234D01*
X139625164Y-32636889D01*
X139691646Y-32676406D01*
X139801569Y-32801089D01*
X139991635Y-32957211D01*
X139996003Y-32959753D01*
X140199068Y-33077940D01*
X140204217Y-33080937D01*
X140208940Y-33082750D01*
X140429117Y-33167268D01*
X140429120Y-33167269D01*
X140433846Y-33169083D01*
X140674614Y-33219382D01*
X140679663Y-33219611D01*
X140679669Y-33219612D01*
X140791788Y-33224703D01*
X140920326Y-33230540D01*
X140925346Y-33229959D01*
X140925350Y-33229959D01*
X141159635Y-33202851D01*
X141159639Y-33202850D01*
X141164662Y-33202269D01*
X141169527Y-33200892D01*
X141169529Y-33200892D01*
X141396472Y-33136674D01*
X141396471Y-33136674D01*
X141401335Y-33135298D01*
X141624256Y-33031348D01*
X141628432Y-33028510D01*
X141628439Y-33028506D01*
X141823502Y-32895941D01*
X141823506Y-32895938D01*
X141827689Y-32893095D01*
X142006402Y-32724095D01*
X142037374Y-32683586D01*
X142094638Y-32641619D01*
X142165501Y-32637273D01*
X142231983Y-32676788D01*
X142341569Y-32801089D01*
X142531635Y-32957211D01*
X142536003Y-32959753D01*
X142739068Y-33077940D01*
X142744217Y-33080937D01*
X142748940Y-33082750D01*
X142969117Y-33167268D01*
X142969120Y-33167269D01*
X142973846Y-33169083D01*
X143214614Y-33219382D01*
X143219663Y-33219611D01*
X143219669Y-33219612D01*
X143331788Y-33224703D01*
X143460326Y-33230540D01*
X143465346Y-33229959D01*
X143465350Y-33229959D01*
X143699635Y-33202851D01*
X143699639Y-33202850D01*
X143704662Y-33202269D01*
X143709527Y-33200892D01*
X143709529Y-33200892D01*
X143936472Y-33136674D01*
X143936471Y-33136674D01*
X143941335Y-33135298D01*
X144164256Y-33031348D01*
X144168432Y-33028510D01*
X144168439Y-33028506D01*
X144363502Y-32895941D01*
X144363506Y-32895938D01*
X144367689Y-32893095D01*
X144546402Y-32724095D01*
X144577374Y-32683586D01*
X144634638Y-32641619D01*
X144705501Y-32637273D01*
X144771983Y-32676788D01*
X144881569Y-32801089D01*
X145071635Y-32957211D01*
X145076003Y-32959753D01*
X145279068Y-33077940D01*
X145284217Y-33080937D01*
X145288940Y-33082750D01*
X145509117Y-33167268D01*
X145509120Y-33167269D01*
X145513846Y-33169083D01*
X145754614Y-33219382D01*
X145759663Y-33219611D01*
X145759669Y-33219612D01*
X145871788Y-33224703D01*
X146000326Y-33230540D01*
X146005346Y-33229959D01*
X146005350Y-33229959D01*
X146239635Y-33202851D01*
X146239639Y-33202850D01*
X146244662Y-33202269D01*
X146249527Y-33200892D01*
X146249529Y-33200892D01*
X146476472Y-33136674D01*
X146476471Y-33136674D01*
X146481335Y-33135298D01*
X146704256Y-33031348D01*
X146708432Y-33028510D01*
X146708439Y-33028506D01*
X146903502Y-32895941D01*
X146903506Y-32895938D01*
X146907689Y-32893095D01*
X147086402Y-32724095D01*
X147117374Y-32683586D01*
X147174638Y-32641619D01*
X147245501Y-32637273D01*
X147311983Y-32676788D01*
X147421569Y-32801089D01*
X147611635Y-32957211D01*
X147616003Y-32959753D01*
X147819068Y-33077940D01*
X147824217Y-33080937D01*
X147828940Y-33082750D01*
X148049117Y-33167268D01*
X148049120Y-33167269D01*
X148053846Y-33169083D01*
X148294614Y-33219382D01*
X148299663Y-33219611D01*
X148299669Y-33219612D01*
X148411788Y-33224703D01*
X148540326Y-33230540D01*
X148545346Y-33229959D01*
X148545350Y-33229959D01*
X148779635Y-33202851D01*
X148779639Y-33202850D01*
X148784662Y-33202269D01*
X148789527Y-33200892D01*
X148789529Y-33200892D01*
X149016472Y-33136674D01*
X149016471Y-33136674D01*
X149021335Y-33135298D01*
X149244256Y-33031348D01*
X149248432Y-33028510D01*
X149248439Y-33028506D01*
X149443502Y-32895941D01*
X149443506Y-32895938D01*
X149447689Y-32893095D01*
X149626402Y-32724095D01*
X149657374Y-32683586D01*
X149714638Y-32641619D01*
X149785501Y-32637273D01*
X149851983Y-32676788D01*
X149961569Y-32801089D01*
X150151635Y-32957211D01*
X150156003Y-32959753D01*
X150359068Y-33077940D01*
X150364217Y-33080937D01*
X150368940Y-33082750D01*
X150589117Y-33167268D01*
X150589120Y-33167269D01*
X150593846Y-33169083D01*
X150834614Y-33219382D01*
X150839663Y-33219611D01*
X150839669Y-33219612D01*
X150951788Y-33224703D01*
X151080326Y-33230540D01*
X151085346Y-33229959D01*
X151085350Y-33229959D01*
X151319635Y-33202851D01*
X151319639Y-33202850D01*
X151324662Y-33202269D01*
X151329527Y-33200892D01*
X151329529Y-33200892D01*
X151556472Y-33136674D01*
X151556471Y-33136674D01*
X151561335Y-33135298D01*
X151784256Y-33031348D01*
X151788432Y-33028510D01*
X151788439Y-33028506D01*
X151983502Y-32895941D01*
X151983506Y-32895938D01*
X151987689Y-32893095D01*
X152166402Y-32724095D01*
X152197685Y-32683179D01*
X152312717Y-32532722D01*
X152312717Y-32532721D01*
X152315795Y-32528696D01*
X152432027Y-32311925D01*
X152512105Y-32079360D01*
X152553971Y-31836984D01*
X152555309Y-31807518D01*
X152555309Y-28676192D01*
X152555107Y-28673679D01*
X152540962Y-28497869D01*
X152540961Y-28497864D01*
X152540556Y-28492828D01*
X152481885Y-28253962D01*
X152385778Y-28027549D01*
X152254709Y-27819414D01*
X152163479Y-27715934D01*
X152098143Y-27641825D01*
X152068098Y-27577500D01*
X152077599Y-27507142D01*
X152123631Y-27453090D01*
X152192657Y-27432500D01*
X162433500Y-27432500D01*
X162501621Y-27452502D01*
X162548114Y-27506158D01*
X162559500Y-27558500D01*
X162559500Y-80137500D01*
X162539498Y-80205621D01*
X162485842Y-80252114D01*
X162433500Y-80263500D01*
X161327564Y-80263500D01*
X161259443Y-80243498D01*
X161212950Y-80189842D01*
X161202846Y-80119568D01*
X161232340Y-80054988D01*
X161240991Y-80045952D01*
X161302716Y-79987581D01*
X161302718Y-79987579D01*
X161306402Y-79984095D01*
X161337685Y-79943179D01*
X161452717Y-79792722D01*
X161452717Y-79792721D01*
X161455795Y-79788696D01*
X161572027Y-79571925D01*
X161652105Y-79339360D01*
X161693971Y-79096984D01*
X161695309Y-79067518D01*
X161695309Y-75936192D01*
X161692548Y-75901877D01*
X161680962Y-75757869D01*
X161680961Y-75757864D01*
X161680556Y-75752828D01*
X161621885Y-75513962D01*
X161525778Y-75287549D01*
X161435499Y-75144187D01*
X161397405Y-75083695D01*
X161397404Y-75083694D01*
X161394709Y-75079414D01*
X161232049Y-74894913D01*
X161041983Y-74738791D01*
X160911681Y-74662953D01*
X160833769Y-74617607D01*
X160833767Y-74617606D01*
X160829401Y-74615065D01*
X160824678Y-74613252D01*
X160604501Y-74528734D01*
X160604498Y-74528733D01*
X160599772Y-74526919D01*
X160359004Y-74476620D01*
X160353955Y-74476391D01*
X160353949Y-74476390D01*
X160241830Y-74471299D01*
X160113292Y-74465462D01*
X160108272Y-74466043D01*
X160108268Y-74466043D01*
X159873983Y-74493151D01*
X159873979Y-74493152D01*
X159868956Y-74493733D01*
X159864091Y-74495110D01*
X159864089Y-74495110D01*
X159727739Y-74533693D01*
X159632283Y-74560704D01*
X159409362Y-74664654D01*
X159405186Y-74667492D01*
X159405179Y-74667496D01*
X159210116Y-74800061D01*
X159210112Y-74800064D01*
X159205929Y-74802907D01*
X159027216Y-74971907D01*
X158996245Y-75012416D01*
X158938980Y-75054383D01*
X158868117Y-75058729D01*
X158801635Y-75019214D01*
X158692049Y-74894913D01*
X158501983Y-74738791D01*
X158371681Y-74662953D01*
X158293769Y-74617607D01*
X158293767Y-74617606D01*
X158289401Y-74615065D01*
X158284678Y-74613252D01*
X158064501Y-74528734D01*
X158064498Y-74528733D01*
X158059772Y-74526919D01*
X157819004Y-74476620D01*
X157813955Y-74476391D01*
X157813949Y-74476390D01*
X157701830Y-74471299D01*
X157573292Y-74465462D01*
X157568272Y-74466043D01*
X157568268Y-74466043D01*
X157333983Y-74493151D01*
X157333979Y-74493152D01*
X157328956Y-74493733D01*
X157324091Y-74495110D01*
X157324089Y-74495110D01*
X157187739Y-74533693D01*
X157092283Y-74560704D01*
X156869362Y-74664654D01*
X156865186Y-74667492D01*
X156865179Y-74667496D01*
X156670116Y-74800061D01*
X156670112Y-74800064D01*
X156665929Y-74802907D01*
X156487216Y-74971907D01*
X156456245Y-75012416D01*
X156398980Y-75054383D01*
X156328117Y-75058729D01*
X156261635Y-75019214D01*
X156152049Y-74894913D01*
X155961983Y-74738791D01*
X155831681Y-74662953D01*
X155753769Y-74617607D01*
X155753767Y-74617606D01*
X155749401Y-74615065D01*
X155744678Y-74613252D01*
X155524501Y-74528734D01*
X155524498Y-74528733D01*
X155519772Y-74526919D01*
X155279004Y-74476620D01*
X155273955Y-74476391D01*
X155273949Y-74476390D01*
X155161830Y-74471299D01*
X155033292Y-74465462D01*
X155028272Y-74466043D01*
X155028268Y-74466043D01*
X154793983Y-74493151D01*
X154793979Y-74493152D01*
X154788956Y-74493733D01*
X154784091Y-74495110D01*
X154784089Y-74495110D01*
X154647739Y-74533693D01*
X154552283Y-74560704D01*
X154329362Y-74664654D01*
X154325186Y-74667492D01*
X154325179Y-74667496D01*
X154130116Y-74800061D01*
X154130112Y-74800064D01*
X154125929Y-74802907D01*
X153947216Y-74971907D01*
X153916245Y-75012416D01*
X153915934Y-75012823D01*
X153858669Y-75054790D01*
X153787806Y-75059135D01*
X153721324Y-75019618D01*
X153615044Y-74899067D01*
X153607792Y-74892064D01*
X153425606Y-74742415D01*
X153417328Y-74736661D01*
X153213555Y-74618062D01*
X153204460Y-74613705D01*
X152984350Y-74529212D01*
X152974678Y-74526366D01*
X152818545Y-74493748D01*
X152804484Y-74494871D01*
X152800809Y-74504979D01*
X152800809Y-77606001D01*
X152780807Y-77674122D01*
X152727151Y-77720615D01*
X152674809Y-77732001D01*
X152418809Y-77732001D01*
X152350688Y-77711999D01*
X152304195Y-77658343D01*
X152292809Y-77606001D01*
X152292809Y-74507277D01*
X152288673Y-74493191D01*
X152275695Y-74491142D01*
X152254075Y-74493644D01*
X152244185Y-74495603D01*
X152017327Y-74559797D01*
X152007876Y-74563312D01*
X151794192Y-74662953D01*
X151785428Y-74667932D01*
X151619323Y-74780818D01*
X151551739Y-74802564D01*
X151483126Y-74784320D01*
X151435270Y-74731877D01*
X151422500Y-74676606D01*
X151422500Y-56527521D01*
X151413497Y-56476461D01*
X151412062Y-56465564D01*
X151408022Y-56419393D01*
X151407543Y-56413913D01*
X151405364Y-56405783D01*
X151394125Y-56363834D01*
X151391746Y-56353105D01*
X151383697Y-56307458D01*
X151382742Y-56302042D01*
X151365005Y-56253308D01*
X151361701Y-56242828D01*
X151349706Y-56198065D01*
X151348284Y-56192757D01*
X151326372Y-56145765D01*
X151322166Y-56135611D01*
X151304434Y-56086892D01*
X151278509Y-56041988D01*
X151273436Y-56032244D01*
X151251523Y-55985251D01*
X151248368Y-55980745D01*
X151248365Y-55980740D01*
X151221784Y-55942777D01*
X151215880Y-55933510D01*
X151192709Y-55893379D01*
X151189955Y-55888609D01*
X151186415Y-55884390D01*
X151186412Y-55884386D01*
X151156630Y-55848893D01*
X151149938Y-55840173D01*
X151123357Y-55802211D01*
X151123355Y-55802208D01*
X151120198Y-55797700D01*
X139782300Y-44459802D01*
X139777792Y-44456645D01*
X139777789Y-44456643D01*
X139739827Y-44430062D01*
X139731107Y-44423370D01*
X139695612Y-44393586D01*
X139695606Y-44393582D01*
X139691391Y-44390045D01*
X139686627Y-44387295D01*
X139686622Y-44387291D01*
X139646494Y-44364124D01*
X139637220Y-44358216D01*
X139599259Y-44331635D01*
X139594749Y-44328477D01*
X139589764Y-44326152D01*
X139589758Y-44326149D01*
X139547750Y-44306561D01*
X139538005Y-44301488D01*
X139493108Y-44275567D01*
X139444389Y-44257834D01*
X139434234Y-44253628D01*
X139432327Y-44252739D01*
X139387243Y-44231716D01*
X139337139Y-44218290D01*
X139326699Y-44214998D01*
X139277959Y-44197258D01*
X139247219Y-44191838D01*
X139226888Y-44188253D01*
X139216163Y-44185875D01*
X139166087Y-44172457D01*
X139114435Y-44167938D01*
X139103538Y-44166503D01*
X139052479Y-44157500D01*
X137735513Y-44157500D01*
X137691284Y-44149482D01*
X137604711Y-44117027D01*
X137604709Y-44117027D01*
X137597316Y-44114255D01*
X137589468Y-44113402D01*
X137589466Y-44113402D01*
X137538531Y-44107869D01*
X137535134Y-44107500D01*
X135738866Y-44107500D01*
X135676684Y-44114255D01*
X135540295Y-44165385D01*
X135423739Y-44252739D01*
X135336385Y-44369295D01*
X135333233Y-44377703D01*
X135291919Y-44487907D01*
X135249277Y-44544671D01*
X135182716Y-44569371D01*
X135113367Y-44554163D01*
X135080743Y-44528476D01*
X135030151Y-44472875D01*
X135030142Y-44472866D01*
X135026670Y-44469051D01*
X135022619Y-44465852D01*
X135022615Y-44465848D01*
X134855414Y-44333800D01*
X134855410Y-44333798D01*
X134851359Y-44330598D01*
X134815028Y-44310542D01*
X134798621Y-44301485D01*
X134655789Y-44222638D01*
X134650920Y-44220914D01*
X134650916Y-44220912D01*
X134450087Y-44149795D01*
X134450083Y-44149794D01*
X134445212Y-44148069D01*
X134440119Y-44147162D01*
X134440116Y-44147161D01*
X134230373Y-44109800D01*
X134230367Y-44109799D01*
X134225284Y-44108894D01*
X134151452Y-44107992D01*
X134007081Y-44106228D01*
X134007079Y-44106228D01*
X134001911Y-44106165D01*
X133781091Y-44139955D01*
X133568756Y-44209357D01*
X133528535Y-44230295D01*
X133386492Y-44304238D01*
X133370607Y-44312507D01*
X133366474Y-44315610D01*
X133366471Y-44315612D01*
X133206763Y-44435524D01*
X133191965Y-44446635D01*
X133166541Y-44473240D01*
X133098280Y-44544671D01*
X133037629Y-44608138D01*
X133034715Y-44612410D01*
X133034714Y-44612411D01*
X132929898Y-44766066D01*
X132874987Y-44811069D01*
X132804462Y-44819240D01*
X132740715Y-44787986D01*
X132720018Y-44763502D01*
X132639426Y-44638926D01*
X132633136Y-44630757D01*
X132489806Y-44473240D01*
X132482273Y-44466215D01*
X132315139Y-44334222D01*
X132306552Y-44328517D01*
X132120117Y-44225599D01*
X132110705Y-44221369D01*
X131909959Y-44150280D01*
X131899988Y-44147646D01*
X131828837Y-44134972D01*
X131815540Y-44136432D01*
X131811000Y-44150989D01*
X131811000Y-46784517D01*
X131815064Y-46798359D01*
X131828478Y-46800393D01*
X131835184Y-46799534D01*
X131845262Y-46797392D01*
X132049255Y-46736191D01*
X132058842Y-46732433D01*
X132250095Y-46638739D01*
X132258945Y-46633464D01*
X132432328Y-46509792D01*
X132440200Y-46503139D01*
X132573560Y-46370242D01*
X132635931Y-46336325D01*
X132706738Y-46341513D01*
X132763499Y-46384159D01*
X132788194Y-46450722D01*
X132788500Y-46459492D01*
X132788500Y-49809810D01*
X132768498Y-49877931D01*
X132714842Y-49924424D01*
X132644568Y-49934528D01*
X132579988Y-49905034D01*
X132569307Y-49894610D01*
X132489806Y-49807240D01*
X132482273Y-49800215D01*
X132315139Y-49668222D01*
X132306552Y-49662517D01*
X132120117Y-49559599D01*
X132110705Y-49555369D01*
X131909959Y-49484280D01*
X131899988Y-49481646D01*
X131828837Y-49468972D01*
X131815540Y-49470432D01*
X131811000Y-49484989D01*
X131811000Y-52118517D01*
X131815064Y-52132359D01*
X131828478Y-52134393D01*
X131835184Y-52133534D01*
X131845262Y-52131392D01*
X132049255Y-52070191D01*
X132058842Y-52066433D01*
X132250095Y-51972739D01*
X132258945Y-51967464D01*
X132432328Y-51843792D01*
X132440200Y-51837139D01*
X132573560Y-51704242D01*
X132635931Y-51670325D01*
X132706738Y-51675513D01*
X132763499Y-51718159D01*
X132788194Y-51784722D01*
X132788500Y-51793492D01*
X132788500Y-51998812D01*
X132768498Y-52066933D01*
X132751595Y-52087907D01*
X131574907Y-53264595D01*
X131512595Y-53298621D01*
X131485812Y-53301500D01*
X130642189Y-53301500D01*
X130574068Y-53281498D01*
X130553094Y-53264595D01*
X128356465Y-51067966D01*
X130225257Y-51067966D01*
X130255565Y-51202446D01*
X130258645Y-51212275D01*
X130338770Y-51409603D01*
X130343413Y-51418794D01*
X130454694Y-51600388D01*
X130460777Y-51608699D01*
X130600213Y-51769667D01*
X130607580Y-51776883D01*
X130771434Y-51912916D01*
X130779881Y-51918831D01*
X130963756Y-52026279D01*
X130973042Y-52030729D01*
X131172001Y-52106703D01*
X131181899Y-52109579D01*
X131285250Y-52130606D01*
X131299299Y-52129410D01*
X131303000Y-52119065D01*
X131303000Y-51072115D01*
X131298525Y-51056876D01*
X131297135Y-51055671D01*
X131289452Y-51054000D01*
X130240225Y-51054000D01*
X130226694Y-51057973D01*
X130225257Y-51067966D01*
X128356465Y-51067966D01*
X127822682Y-50534183D01*
X130221389Y-50534183D01*
X130222912Y-50542607D01*
X130235292Y-50546000D01*
X131284885Y-50546000D01*
X131300124Y-50541525D01*
X131301329Y-50540135D01*
X131303000Y-50532452D01*
X131303000Y-49483102D01*
X131299082Y-49469758D01*
X131284806Y-49467771D01*
X131246324Y-49473660D01*
X131236288Y-49476051D01*
X131033868Y-49542212D01*
X131024359Y-49546209D01*
X130835463Y-49644542D01*
X130826738Y-49650036D01*
X130656433Y-49777905D01*
X130648726Y-49784748D01*
X130501590Y-49938717D01*
X130495104Y-49946727D01*
X130375098Y-50122649D01*
X130370000Y-50131623D01*
X130280338Y-50324783D01*
X130276775Y-50334470D01*
X130221389Y-50534183D01*
X127822682Y-50534183D01*
X123022464Y-45733966D01*
X130225257Y-45733966D01*
X130255565Y-45868446D01*
X130258645Y-45878275D01*
X130338770Y-46075603D01*
X130343413Y-46084794D01*
X130454694Y-46266388D01*
X130460777Y-46274699D01*
X130600213Y-46435667D01*
X130607580Y-46442883D01*
X130771434Y-46578916D01*
X130779881Y-46584831D01*
X130963756Y-46692279D01*
X130973042Y-46696729D01*
X131172001Y-46772703D01*
X131181899Y-46775579D01*
X131285250Y-46796606D01*
X131299299Y-46795410D01*
X131303000Y-46785065D01*
X131303000Y-45738115D01*
X131298525Y-45722876D01*
X131297135Y-45721671D01*
X131289452Y-45720000D01*
X130240225Y-45720000D01*
X130226694Y-45723973D01*
X130225257Y-45733966D01*
X123022464Y-45733966D01*
X122488681Y-45200183D01*
X130221389Y-45200183D01*
X130222912Y-45208607D01*
X130235292Y-45212000D01*
X131284885Y-45212000D01*
X131300124Y-45207525D01*
X131301329Y-45206135D01*
X131303000Y-45198452D01*
X131303000Y-44149102D01*
X131299082Y-44135758D01*
X131284806Y-44133771D01*
X131246324Y-44139660D01*
X131236288Y-44142051D01*
X131033868Y-44208212D01*
X131024359Y-44212209D01*
X130835463Y-44310542D01*
X130826738Y-44316036D01*
X130656433Y-44443905D01*
X130648726Y-44450748D01*
X130501590Y-44604717D01*
X130495104Y-44612727D01*
X130375098Y-44788649D01*
X130370000Y-44797623D01*
X130280338Y-44990783D01*
X130276775Y-45000470D01*
X130221389Y-45200183D01*
X122488681Y-45200183D01*
X121319593Y-44031095D01*
X121285567Y-43968783D01*
X121290632Y-43897968D01*
X121319593Y-43852905D01*
X121656198Y-43516300D01*
X121678566Y-43484356D01*
X121685938Y-43473827D01*
X121692630Y-43465107D01*
X121722412Y-43429614D01*
X121722415Y-43429610D01*
X121725955Y-43425391D01*
X121732495Y-43414063D01*
X121751880Y-43380490D01*
X121757784Y-43371223D01*
X121784365Y-43333260D01*
X121784368Y-43333255D01*
X121787523Y-43328749D01*
X121809439Y-43281750D01*
X121814512Y-43272006D01*
X121837685Y-43231869D01*
X121840434Y-43227108D01*
X121858167Y-43178387D01*
X121862372Y-43168235D01*
X121881960Y-43126227D01*
X121881960Y-43126226D01*
X121884284Y-43121243D01*
X121897701Y-43071172D01*
X121901005Y-43060692D01*
X121916860Y-43017128D01*
X121918742Y-43011958D01*
X121927746Y-42960895D01*
X121930125Y-42950166D01*
X121942118Y-42905405D01*
X121943543Y-42900087D01*
X121948062Y-42848436D01*
X121949497Y-42837539D01*
X121957544Y-42791900D01*
X121958500Y-42786479D01*
X121958500Y-41792670D01*
X126386160Y-41792670D01*
X126391887Y-41800320D01*
X126563042Y-41905205D01*
X126571837Y-41909687D01*
X126781988Y-41996734D01*
X126791373Y-41999783D01*
X127012554Y-42052885D01*
X127022301Y-42054428D01*
X127249070Y-42072275D01*
X127258930Y-42072275D01*
X127485699Y-42054428D01*
X127495446Y-42052885D01*
X127716627Y-41999783D01*
X127726012Y-41996734D01*
X127936163Y-41909687D01*
X127944958Y-41905205D01*
X128112445Y-41802568D01*
X128121907Y-41792110D01*
X128118124Y-41783334D01*
X127266812Y-40932022D01*
X127252868Y-40924408D01*
X127251035Y-40924539D01*
X127244420Y-40928790D01*
X126392920Y-41780290D01*
X126386160Y-41792670D01*
X121958500Y-41792670D01*
X121958500Y-40564930D01*
X125741725Y-40564930D01*
X125759572Y-40791699D01*
X125761115Y-40801446D01*
X125814217Y-41022627D01*
X125817266Y-41032012D01*
X125904313Y-41242163D01*
X125908795Y-41250958D01*
X126011432Y-41418445D01*
X126021890Y-41427907D01*
X126030666Y-41424124D01*
X126881978Y-40572812D01*
X126888356Y-40561132D01*
X127618408Y-40561132D01*
X127618539Y-40562965D01*
X127622790Y-40569580D01*
X128474290Y-41421080D01*
X128486670Y-41427840D01*
X128494320Y-41422113D01*
X128599205Y-41250958D01*
X128603687Y-41242163D01*
X128690734Y-41032012D01*
X128693783Y-41022627D01*
X128746885Y-40801446D01*
X128748428Y-40791699D01*
X128766275Y-40564930D01*
X128766275Y-40555070D01*
X128748428Y-40328301D01*
X128746885Y-40318554D01*
X128693783Y-40097373D01*
X128690734Y-40087988D01*
X128603687Y-39877837D01*
X128599205Y-39869042D01*
X128496568Y-39701555D01*
X128486110Y-39692093D01*
X128477334Y-39695876D01*
X127626022Y-40547188D01*
X127618408Y-40561132D01*
X126888356Y-40561132D01*
X126889592Y-40558868D01*
X126889461Y-40557035D01*
X126885210Y-40550420D01*
X126033710Y-39698920D01*
X126021330Y-39692160D01*
X126013680Y-39697887D01*
X125908795Y-39869042D01*
X125904313Y-39877837D01*
X125817266Y-40087988D01*
X125814217Y-40097373D01*
X125761115Y-40318554D01*
X125759572Y-40328301D01*
X125741725Y-40555070D01*
X125741725Y-40564930D01*
X121958500Y-40564930D01*
X121958500Y-39327890D01*
X126386093Y-39327890D01*
X126389876Y-39336666D01*
X127241188Y-40187978D01*
X127255132Y-40195592D01*
X127256965Y-40195461D01*
X127263580Y-40191210D01*
X128115080Y-39339710D01*
X128121840Y-39327330D01*
X128116113Y-39319680D01*
X127944958Y-39214795D01*
X127936163Y-39210313D01*
X127726012Y-39123266D01*
X127716627Y-39120217D01*
X127495446Y-39067115D01*
X127485699Y-39065572D01*
X127258930Y-39047725D01*
X127249070Y-39047725D01*
X127022301Y-39065572D01*
X127012554Y-39067115D01*
X126791373Y-39120217D01*
X126781988Y-39123266D01*
X126571837Y-39210313D01*
X126563042Y-39214795D01*
X126395555Y-39317432D01*
X126386093Y-39327890D01*
X121958500Y-39327890D01*
X121958500Y-36994500D01*
X121978502Y-36926379D01*
X122032158Y-36879886D01*
X122084500Y-36868500D01*
X125786671Y-36868500D01*
X125854792Y-36888502D01*
X125878332Y-36910407D01*
X125879008Y-36909731D01*
X125885358Y-36916081D01*
X125890739Y-36923261D01*
X126007295Y-37010615D01*
X126143684Y-37061745D01*
X126205866Y-37068500D01*
X128302134Y-37068500D01*
X128364316Y-37061745D01*
X128500705Y-37010615D01*
X128617261Y-36923261D01*
X128704615Y-36806705D01*
X128755745Y-36670316D01*
X128762500Y-36608134D01*
X128762500Y-34511866D01*
X128755745Y-34449684D01*
X128704615Y-34313295D01*
X128617261Y-34196739D01*
X128500705Y-34109385D01*
X128364316Y-34058255D01*
X128302134Y-34051500D01*
X126205866Y-34051500D01*
X126143684Y-34058255D01*
X126007295Y-34109385D01*
X125890739Y-34196739D01*
X125885358Y-34203919D01*
X125879008Y-34210269D01*
X125877373Y-34208634D01*
X125830641Y-34243579D01*
X125786671Y-34251500D01*
X120712634Y-34251500D01*
X120701652Y-34251021D01*
X120655475Y-34246981D01*
X120650000Y-34246502D01*
X120644525Y-34246981D01*
X120598348Y-34251021D01*
X120587366Y-34251500D01*
X117748493Y-34251500D01*
X117680372Y-34231498D01*
X117633879Y-34177842D01*
X117626457Y-34156237D01*
X117625745Y-34149684D01*
X117622972Y-34142285D01*
X117577767Y-34021703D01*
X117574615Y-34013295D01*
X117487261Y-33896739D01*
X117370705Y-33809385D01*
X117234316Y-33758255D01*
X117172134Y-33751500D01*
X114475866Y-33751500D01*
X114413684Y-33758255D01*
X114277295Y-33809385D01*
X114160739Y-33896739D01*
X114073385Y-34013295D01*
X114022255Y-34149684D01*
X114015500Y-34211866D01*
X114015500Y-36908134D01*
X114022255Y-36970316D01*
X114073385Y-37106705D01*
X114160739Y-37223261D01*
X114277295Y-37310615D01*
X114413684Y-37361745D01*
X114475866Y-37368500D01*
X117172134Y-37368500D01*
X117234316Y-37361745D01*
X117370705Y-37310615D01*
X117487261Y-37223261D01*
X117574615Y-37106705D01*
X117580120Y-37092022D01*
X117622972Y-36977714D01*
X117622973Y-36977711D01*
X117625745Y-36970316D01*
X117626372Y-36964547D01*
X117661126Y-36903709D01*
X117724081Y-36870887D01*
X117748493Y-36868500D01*
X119215500Y-36868500D01*
X119283621Y-36888502D01*
X119330114Y-36942158D01*
X119341500Y-36994500D01*
X119341500Y-42077812D01*
X119321498Y-42145933D01*
X119304595Y-42166907D01*
X119003167Y-42468335D01*
X119003145Y-42468356D01*
X118499036Y-42972466D01*
X118490931Y-42979892D01*
X118455430Y-43009681D01*
X118455425Y-43009686D01*
X118451217Y-43013217D01*
X118447686Y-43017425D01*
X118447681Y-43017430D01*
X118417892Y-43052931D01*
X118410466Y-43061035D01*
X118366906Y-43104595D01*
X118304594Y-43138621D01*
X118277811Y-43141500D01*
X115766873Y-43141500D01*
X115766866Y-43141501D01*
X115709521Y-43141501D01*
X115658460Y-43150504D01*
X115647563Y-43151938D01*
X115595913Y-43156457D01*
X115590598Y-43157881D01*
X115590593Y-43157882D01*
X115545834Y-43169875D01*
X115535104Y-43172254D01*
X115489462Y-43180302D01*
X115489461Y-43180302D01*
X115484041Y-43181258D01*
X115435301Y-43198998D01*
X115424861Y-43202290D01*
X115374757Y-43215716D01*
X115328841Y-43237127D01*
X115327766Y-43237628D01*
X115317611Y-43241834D01*
X115268892Y-43259567D01*
X115223995Y-43285488D01*
X115214250Y-43290561D01*
X115172242Y-43310149D01*
X115172236Y-43310152D01*
X115167251Y-43312477D01*
X115144013Y-43328749D01*
X115124780Y-43342216D01*
X115115506Y-43348124D01*
X115075378Y-43371291D01*
X115075373Y-43371295D01*
X115070609Y-43374045D01*
X115066398Y-43377578D01*
X115066393Y-43377582D01*
X115030896Y-43407369D01*
X115022172Y-43414063D01*
X114984207Y-43440645D01*
X114984198Y-43440652D01*
X114979700Y-43443802D01*
X114939167Y-43484335D01*
X114939145Y-43484356D01*
X114710700Y-43712802D01*
X114548802Y-43874700D01*
X114545647Y-43879206D01*
X114545646Y-43879207D01*
X114519062Y-43917173D01*
X114512370Y-43925893D01*
X114482586Y-43961388D01*
X114482582Y-43961394D01*
X114479045Y-43965609D01*
X114476295Y-43970373D01*
X114476291Y-43970378D01*
X114453124Y-44010506D01*
X114447219Y-44019776D01*
X114417477Y-44062251D01*
X114415152Y-44067236D01*
X114415149Y-44067242D01*
X114395561Y-44109250D01*
X114390488Y-44118995D01*
X114364567Y-44163892D01*
X114362686Y-44169060D01*
X114346834Y-44212612D01*
X114342628Y-44222766D01*
X114320716Y-44269757D01*
X114307290Y-44319861D01*
X114303998Y-44330301D01*
X114286258Y-44379041D01*
X114280838Y-44409781D01*
X114277253Y-44430112D01*
X114274875Y-44440837D01*
X114261457Y-44490913D01*
X114260978Y-44496392D01*
X114256938Y-44542565D01*
X114255503Y-44553461D01*
X114246500Y-44604521D01*
X114246500Y-47253326D01*
X114226498Y-47321447D01*
X114172842Y-47367940D01*
X114102568Y-47378044D01*
X114037988Y-47348550D01*
X114027306Y-47338126D01*
X113962799Y-47267234D01*
X113955273Y-47260215D01*
X113788139Y-47128222D01*
X113779552Y-47122517D01*
X113593117Y-47019599D01*
X113583705Y-47015369D01*
X113382959Y-46944280D01*
X113372988Y-46941646D01*
X113301837Y-46928972D01*
X113288540Y-46930432D01*
X113284000Y-46944989D01*
X113284000Y-49578517D01*
X113288064Y-49592359D01*
X113301478Y-49594393D01*
X113308184Y-49593534D01*
X113318262Y-49591392D01*
X113522255Y-49530191D01*
X113531842Y-49526433D01*
X113723095Y-49432739D01*
X113731945Y-49427464D01*
X113905328Y-49303792D01*
X113913200Y-49297139D01*
X114031560Y-49179190D01*
X114093931Y-49145273D01*
X114164738Y-49150461D01*
X114221499Y-49193107D01*
X114246194Y-49259670D01*
X114246500Y-49268440D01*
X114246500Y-52333326D01*
X114226498Y-52401447D01*
X114172842Y-52447940D01*
X114102568Y-52458044D01*
X114037988Y-52428550D01*
X114027306Y-52418126D01*
X113962799Y-52347234D01*
X113955273Y-52340215D01*
X113788139Y-52208222D01*
X113779552Y-52202517D01*
X113593117Y-52099599D01*
X113583705Y-52095369D01*
X113382959Y-52024280D01*
X113372988Y-52021646D01*
X113301837Y-52008972D01*
X113288540Y-52010432D01*
X113284000Y-52024989D01*
X113284000Y-54658517D01*
X113288064Y-54672359D01*
X113301478Y-54674393D01*
X113308184Y-54673534D01*
X113318262Y-54671392D01*
X113522255Y-54610191D01*
X113531842Y-54606433D01*
X113723095Y-54512739D01*
X113731945Y-54507464D01*
X113905328Y-54383792D01*
X113913200Y-54377139D01*
X114031560Y-54259190D01*
X114093931Y-54225273D01*
X114164738Y-54230461D01*
X114221499Y-54273107D01*
X114246194Y-54339670D01*
X114246500Y-54348440D01*
X114246500Y-57413326D01*
X114226498Y-57481447D01*
X114172842Y-57527940D01*
X114102568Y-57538044D01*
X114037988Y-57508550D01*
X114027306Y-57498126D01*
X113962799Y-57427234D01*
X113955273Y-57420215D01*
X113788139Y-57288222D01*
X113779552Y-57282517D01*
X113593117Y-57179599D01*
X113583705Y-57175369D01*
X113382959Y-57104280D01*
X113372988Y-57101646D01*
X113301837Y-57088972D01*
X113288540Y-57090432D01*
X113284000Y-57104989D01*
X113284000Y-59738517D01*
X113288064Y-59752359D01*
X113301478Y-59754393D01*
X113308184Y-59753534D01*
X113318262Y-59751392D01*
X113522255Y-59690191D01*
X113531842Y-59686433D01*
X113723095Y-59592739D01*
X113731945Y-59587464D01*
X113905328Y-59463792D01*
X113913200Y-59457139D01*
X114031560Y-59339190D01*
X114093931Y-59305273D01*
X114164738Y-59310461D01*
X114221499Y-59353107D01*
X114246194Y-59419670D01*
X114246500Y-59428440D01*
X114246500Y-62493326D01*
X114226498Y-62561447D01*
X114172842Y-62607940D01*
X114102568Y-62618044D01*
X114037988Y-62588550D01*
X114027306Y-62578126D01*
X113962799Y-62507234D01*
X113955273Y-62500215D01*
X113788139Y-62368222D01*
X113779552Y-62362517D01*
X113593117Y-62259599D01*
X113583705Y-62255369D01*
X113382959Y-62184280D01*
X113372988Y-62181646D01*
X113301837Y-62168972D01*
X113288540Y-62170432D01*
X113284000Y-62184989D01*
X113284000Y-64818517D01*
X113288064Y-64832359D01*
X113301478Y-64834393D01*
X113308184Y-64833534D01*
X113318262Y-64831392D01*
X113522255Y-64770191D01*
X113531842Y-64766433D01*
X113723095Y-64672739D01*
X113731945Y-64667464D01*
X113905328Y-64543792D01*
X113913200Y-64537139D01*
X114031560Y-64419190D01*
X114093931Y-64385273D01*
X114164738Y-64390461D01*
X114221499Y-64433107D01*
X114246194Y-64499670D01*
X114246500Y-64508440D01*
X114246500Y-67081810D01*
X114226498Y-67149931D01*
X114172842Y-67196424D01*
X114102568Y-67206528D01*
X114037988Y-67177034D01*
X114027307Y-67166610D01*
X113947806Y-67079240D01*
X113940273Y-67072215D01*
X113773139Y-66940222D01*
X113764552Y-66934517D01*
X113578117Y-66831599D01*
X113568705Y-66827369D01*
X113367959Y-66756280D01*
X113357988Y-66753646D01*
X113286837Y-66740972D01*
X113273540Y-66742432D01*
X113269000Y-66756989D01*
X113269000Y-69390517D01*
X113273064Y-69404359D01*
X113286478Y-69406393D01*
X113293184Y-69405534D01*
X113303262Y-69403392D01*
X113507255Y-69342191D01*
X113516842Y-69338433D01*
X113708095Y-69244739D01*
X113716945Y-69239464D01*
X113890328Y-69115792D01*
X113898200Y-69109139D01*
X114031560Y-68976242D01*
X114093931Y-68942325D01*
X114164738Y-68947513D01*
X114221499Y-68990159D01*
X114246194Y-69056722D01*
X114246500Y-69065492D01*
X114246500Y-71399810D01*
X114226498Y-71467931D01*
X114172842Y-71514424D01*
X114102568Y-71524528D01*
X114037988Y-71495034D01*
X114027307Y-71484610D01*
X113947806Y-71397240D01*
X113940273Y-71390215D01*
X113773139Y-71258222D01*
X113764552Y-71252517D01*
X113578117Y-71149599D01*
X113568705Y-71145369D01*
X113367959Y-71074280D01*
X113357988Y-71071646D01*
X113286837Y-71058972D01*
X113273540Y-71060432D01*
X113269000Y-71074989D01*
X113269000Y-73708517D01*
X113273064Y-73722359D01*
X113286478Y-73724393D01*
X113293184Y-73723534D01*
X113303262Y-73721392D01*
X113507255Y-73660191D01*
X113516842Y-73656433D01*
X113708095Y-73562739D01*
X113716945Y-73557464D01*
X113890328Y-73433792D01*
X113898200Y-73427139D01*
X114049052Y-73276812D01*
X114055730Y-73268965D01*
X114183022Y-73091819D01*
X114184279Y-73092722D01*
X114231373Y-73049362D01*
X114301311Y-73037145D01*
X114366751Y-73064678D01*
X114394579Y-73096511D01*
X114401354Y-73107566D01*
X114454987Y-73195088D01*
X114601250Y-73363938D01*
X114773126Y-73506632D01*
X114966000Y-73619338D01*
X115174692Y-73699030D01*
X115179760Y-73700061D01*
X115179763Y-73700062D01*
X115274862Y-73719410D01*
X115393597Y-73743567D01*
X115398772Y-73743757D01*
X115398774Y-73743757D01*
X115611673Y-73751564D01*
X115611677Y-73751564D01*
X115616837Y-73751753D01*
X115621957Y-73751097D01*
X115621959Y-73751097D01*
X115833288Y-73724025D01*
X115833289Y-73724025D01*
X115838416Y-73723368D01*
X115843366Y-73721883D01*
X116047429Y-73660661D01*
X116047434Y-73660659D01*
X116052384Y-73659174D01*
X116252994Y-73560896D01*
X116434860Y-73431173D01*
X116543091Y-73323319D01*
X116605462Y-73289404D01*
X116676268Y-73294592D01*
X116733030Y-73337238D01*
X116750012Y-73368341D01*
X116779813Y-73447834D01*
X116794385Y-73486705D01*
X116881739Y-73603261D01*
X116998295Y-73690615D01*
X117134684Y-73741745D01*
X117196866Y-73748500D01*
X117550812Y-73748500D01*
X117618933Y-73768502D01*
X117639907Y-73785405D01*
X118107706Y-74253204D01*
X118141732Y-74315516D01*
X118136667Y-74386331D01*
X118094120Y-74443167D01*
X118027600Y-74467978D01*
X118012901Y-74468169D01*
X117953292Y-74465462D01*
X117948272Y-74466043D01*
X117948268Y-74466043D01*
X117713983Y-74493151D01*
X117713979Y-74493152D01*
X117708956Y-74493733D01*
X117704091Y-74495110D01*
X117704089Y-74495110D01*
X117567739Y-74533693D01*
X117472283Y-74560704D01*
X117249362Y-74664654D01*
X117245186Y-74667492D01*
X117245179Y-74667496D01*
X117050116Y-74800061D01*
X117050112Y-74800064D01*
X117045929Y-74802907D01*
X116867216Y-74971907D01*
X116836245Y-75012416D01*
X116778980Y-75054383D01*
X116708117Y-75058729D01*
X116641635Y-75019214D01*
X116532049Y-74894913D01*
X116341983Y-74738791D01*
X116211681Y-74662953D01*
X116133769Y-74617607D01*
X116133767Y-74617606D01*
X116129401Y-74615065D01*
X116124678Y-74613252D01*
X115904501Y-74528734D01*
X115904498Y-74528733D01*
X115899772Y-74526919D01*
X115659004Y-74476620D01*
X115653955Y-74476391D01*
X115653949Y-74476390D01*
X115541830Y-74471299D01*
X115413292Y-74465462D01*
X115408272Y-74466043D01*
X115408268Y-74466043D01*
X115173983Y-74493151D01*
X115173979Y-74493152D01*
X115168956Y-74493733D01*
X115164091Y-74495110D01*
X115164089Y-74495110D01*
X115027739Y-74533693D01*
X114932283Y-74560704D01*
X114709362Y-74664654D01*
X114705186Y-74667492D01*
X114705179Y-74667496D01*
X114510116Y-74800061D01*
X114510112Y-74800064D01*
X114505929Y-74802907D01*
X114327216Y-74971907D01*
X114324138Y-74975933D01*
X114324137Y-74975934D01*
X114247922Y-75075620D01*
X114177823Y-75167306D01*
X114061591Y-75384077D01*
X113981513Y-75616642D01*
X113939647Y-75859018D01*
X113939467Y-75862975D01*
X113939467Y-75862978D01*
X113938932Y-75874774D01*
X113938309Y-75888484D01*
X113938309Y-79019810D01*
X113938511Y-79022318D01*
X113938511Y-79022323D01*
X113944833Y-79100891D01*
X113953062Y-79203174D01*
X114011733Y-79442040D01*
X114107840Y-79668453D01*
X114238909Y-79876588D01*
X114242254Y-79880382D01*
X114395473Y-80054175D01*
X114425518Y-80118500D01*
X114416017Y-80188858D01*
X114369985Y-80242910D01*
X114300959Y-80263500D01*
X110870500Y-80263500D01*
X110802379Y-80243498D01*
X110755886Y-80189842D01*
X110744500Y-80137500D01*
X110744500Y-72657966D01*
X111683257Y-72657966D01*
X111713565Y-72792446D01*
X111716645Y-72802275D01*
X111796770Y-72999603D01*
X111801413Y-73008794D01*
X111912694Y-73190388D01*
X111918777Y-73198699D01*
X112058213Y-73359667D01*
X112065580Y-73366883D01*
X112229434Y-73502916D01*
X112237881Y-73508831D01*
X112421756Y-73616279D01*
X112431042Y-73620729D01*
X112630001Y-73696703D01*
X112639899Y-73699579D01*
X112743250Y-73720606D01*
X112757299Y-73719410D01*
X112761000Y-73709065D01*
X112761000Y-72662115D01*
X112756525Y-72646876D01*
X112755135Y-72645671D01*
X112747452Y-72644000D01*
X111698225Y-72644000D01*
X111684694Y-72647973D01*
X111683257Y-72657966D01*
X110744500Y-72657966D01*
X110744500Y-72124183D01*
X111679389Y-72124183D01*
X111680912Y-72132607D01*
X111693292Y-72136000D01*
X112742885Y-72136000D01*
X112758124Y-72131525D01*
X112759329Y-72130135D01*
X112761000Y-72122452D01*
X112761000Y-71073102D01*
X112757082Y-71059758D01*
X112742806Y-71057771D01*
X112704324Y-71063660D01*
X112694288Y-71066051D01*
X112491868Y-71132212D01*
X112482359Y-71136209D01*
X112293463Y-71234542D01*
X112284738Y-71240036D01*
X112114433Y-71367905D01*
X112106726Y-71374748D01*
X111959590Y-71528717D01*
X111953104Y-71536727D01*
X111833098Y-71712649D01*
X111828000Y-71721623D01*
X111738338Y-71914783D01*
X111734775Y-71924470D01*
X111679389Y-72124183D01*
X110744500Y-72124183D01*
X110744500Y-68339966D01*
X111683257Y-68339966D01*
X111713565Y-68474446D01*
X111716645Y-68484275D01*
X111796770Y-68681603D01*
X111801413Y-68690794D01*
X111912694Y-68872388D01*
X111918777Y-68880699D01*
X112058213Y-69041667D01*
X112065580Y-69048883D01*
X112229434Y-69184916D01*
X112237881Y-69190831D01*
X112421756Y-69298279D01*
X112431042Y-69302729D01*
X112630001Y-69378703D01*
X112639899Y-69381579D01*
X112743250Y-69402606D01*
X112757299Y-69401410D01*
X112761000Y-69391065D01*
X112761000Y-68344115D01*
X112756525Y-68328876D01*
X112755135Y-68327671D01*
X112747452Y-68326000D01*
X111698225Y-68326000D01*
X111684694Y-68329973D01*
X111683257Y-68339966D01*
X110744500Y-68339966D01*
X110744500Y-67806183D01*
X111679389Y-67806183D01*
X111680912Y-67814607D01*
X111693292Y-67818000D01*
X112742885Y-67818000D01*
X112758124Y-67813525D01*
X112759329Y-67812135D01*
X112761000Y-67804452D01*
X112761000Y-66755102D01*
X112757082Y-66741758D01*
X112742806Y-66739771D01*
X112704324Y-66745660D01*
X112694288Y-66748051D01*
X112491868Y-66814212D01*
X112482359Y-66818209D01*
X112293463Y-66916542D01*
X112284738Y-66922036D01*
X112114433Y-67049905D01*
X112106726Y-67056748D01*
X111959590Y-67210717D01*
X111953104Y-67218727D01*
X111833098Y-67394649D01*
X111828000Y-67403623D01*
X111738338Y-67596783D01*
X111734775Y-67606470D01*
X111679389Y-67806183D01*
X110744500Y-67806183D01*
X110744500Y-63767966D01*
X111698257Y-63767966D01*
X111728565Y-63902446D01*
X111731645Y-63912275D01*
X111811770Y-64109603D01*
X111816413Y-64118794D01*
X111927694Y-64300388D01*
X111933777Y-64308699D01*
X112073213Y-64469667D01*
X112080580Y-64476883D01*
X112244434Y-64612916D01*
X112252881Y-64618831D01*
X112436756Y-64726279D01*
X112446042Y-64730729D01*
X112645001Y-64806703D01*
X112654899Y-64809579D01*
X112758250Y-64830606D01*
X112772299Y-64829410D01*
X112776000Y-64819065D01*
X112776000Y-63772115D01*
X112771525Y-63756876D01*
X112770135Y-63755671D01*
X112762452Y-63754000D01*
X111713225Y-63754000D01*
X111699694Y-63757973D01*
X111698257Y-63767966D01*
X110744500Y-63767966D01*
X110744500Y-63234183D01*
X111694389Y-63234183D01*
X111695912Y-63242607D01*
X111708292Y-63246000D01*
X112757885Y-63246000D01*
X112773124Y-63241525D01*
X112774329Y-63240135D01*
X112776000Y-63232452D01*
X112776000Y-62183102D01*
X112772082Y-62169758D01*
X112757806Y-62167771D01*
X112719324Y-62173660D01*
X112709288Y-62176051D01*
X112506868Y-62242212D01*
X112497359Y-62246209D01*
X112308463Y-62344542D01*
X112299738Y-62350036D01*
X112129433Y-62477905D01*
X112121726Y-62484748D01*
X111974590Y-62638717D01*
X111968104Y-62646727D01*
X111848098Y-62822649D01*
X111843000Y-62831623D01*
X111753338Y-63024783D01*
X111749775Y-63034470D01*
X111694389Y-63234183D01*
X110744500Y-63234183D01*
X110744500Y-58687966D01*
X111698257Y-58687966D01*
X111728565Y-58822446D01*
X111731645Y-58832275D01*
X111811770Y-59029603D01*
X111816413Y-59038794D01*
X111927694Y-59220388D01*
X111933777Y-59228699D01*
X112073213Y-59389667D01*
X112080580Y-59396883D01*
X112244434Y-59532916D01*
X112252881Y-59538831D01*
X112436756Y-59646279D01*
X112446042Y-59650729D01*
X112645001Y-59726703D01*
X112654899Y-59729579D01*
X112758250Y-59750606D01*
X112772299Y-59749410D01*
X112776000Y-59739065D01*
X112776000Y-58692115D01*
X112771525Y-58676876D01*
X112770135Y-58675671D01*
X112762452Y-58674000D01*
X111713225Y-58674000D01*
X111699694Y-58677973D01*
X111698257Y-58687966D01*
X110744500Y-58687966D01*
X110744500Y-58154183D01*
X111694389Y-58154183D01*
X111695912Y-58162607D01*
X111708292Y-58166000D01*
X112757885Y-58166000D01*
X112773124Y-58161525D01*
X112774329Y-58160135D01*
X112776000Y-58152452D01*
X112776000Y-57103102D01*
X112772082Y-57089758D01*
X112757806Y-57087771D01*
X112719324Y-57093660D01*
X112709288Y-57096051D01*
X112506868Y-57162212D01*
X112497359Y-57166209D01*
X112308463Y-57264542D01*
X112299738Y-57270036D01*
X112129433Y-57397905D01*
X112121726Y-57404748D01*
X111974590Y-57558717D01*
X111968104Y-57566727D01*
X111848098Y-57742649D01*
X111843000Y-57751623D01*
X111753338Y-57944783D01*
X111749775Y-57954470D01*
X111694389Y-58154183D01*
X110744500Y-58154183D01*
X110744500Y-53607966D01*
X111698257Y-53607966D01*
X111728565Y-53742446D01*
X111731645Y-53752275D01*
X111811770Y-53949603D01*
X111816413Y-53958794D01*
X111927694Y-54140388D01*
X111933777Y-54148699D01*
X112073213Y-54309667D01*
X112080580Y-54316883D01*
X112244434Y-54452916D01*
X112252881Y-54458831D01*
X112436756Y-54566279D01*
X112446042Y-54570729D01*
X112645001Y-54646703D01*
X112654899Y-54649579D01*
X112758250Y-54670606D01*
X112772299Y-54669410D01*
X112776000Y-54659065D01*
X112776000Y-53612115D01*
X112771525Y-53596876D01*
X112770135Y-53595671D01*
X112762452Y-53594000D01*
X111713225Y-53594000D01*
X111699694Y-53597973D01*
X111698257Y-53607966D01*
X110744500Y-53607966D01*
X110744500Y-53074183D01*
X111694389Y-53074183D01*
X111695912Y-53082607D01*
X111708292Y-53086000D01*
X112757885Y-53086000D01*
X112773124Y-53081525D01*
X112774329Y-53080135D01*
X112776000Y-53072452D01*
X112776000Y-52023102D01*
X112772082Y-52009758D01*
X112757806Y-52007771D01*
X112719324Y-52013660D01*
X112709288Y-52016051D01*
X112506868Y-52082212D01*
X112497359Y-52086209D01*
X112308463Y-52184542D01*
X112299738Y-52190036D01*
X112129433Y-52317905D01*
X112121726Y-52324748D01*
X111974590Y-52478717D01*
X111968104Y-52486727D01*
X111848098Y-52662649D01*
X111843000Y-52671623D01*
X111753338Y-52864783D01*
X111749775Y-52874470D01*
X111694389Y-53074183D01*
X110744500Y-53074183D01*
X110744500Y-48527966D01*
X111698257Y-48527966D01*
X111728565Y-48662446D01*
X111731645Y-48672275D01*
X111811770Y-48869603D01*
X111816413Y-48878794D01*
X111927694Y-49060388D01*
X111933777Y-49068699D01*
X112073213Y-49229667D01*
X112080580Y-49236883D01*
X112244434Y-49372916D01*
X112252881Y-49378831D01*
X112436756Y-49486279D01*
X112446042Y-49490729D01*
X112645001Y-49566703D01*
X112654899Y-49569579D01*
X112758250Y-49590606D01*
X112772299Y-49589410D01*
X112776000Y-49579065D01*
X112776000Y-48532115D01*
X112771525Y-48516876D01*
X112770135Y-48515671D01*
X112762452Y-48514000D01*
X111713225Y-48514000D01*
X111699694Y-48517973D01*
X111698257Y-48527966D01*
X110744500Y-48527966D01*
X110744500Y-47994183D01*
X111694389Y-47994183D01*
X111695912Y-48002607D01*
X111708292Y-48006000D01*
X112757885Y-48006000D01*
X112773124Y-48001525D01*
X112774329Y-48000135D01*
X112776000Y-47992452D01*
X112776000Y-46943102D01*
X112772082Y-46929758D01*
X112757806Y-46927771D01*
X112719324Y-46933660D01*
X112709288Y-46936051D01*
X112506868Y-47002212D01*
X112497359Y-47006209D01*
X112308463Y-47104542D01*
X112299738Y-47110036D01*
X112129433Y-47237905D01*
X112121726Y-47244748D01*
X111974590Y-47398717D01*
X111968104Y-47406727D01*
X111848098Y-47582649D01*
X111843000Y-47591623D01*
X111753338Y-47784783D01*
X111749775Y-47794470D01*
X111694389Y-47994183D01*
X110744500Y-47994183D01*
X110744500Y-42084906D01*
X114743839Y-42084906D01*
X114752553Y-42096427D01*
X114859452Y-42174809D01*
X114867351Y-42179745D01*
X115096905Y-42300519D01*
X115105454Y-42304236D01*
X115350327Y-42389749D01*
X115359336Y-42392163D01*
X115614166Y-42440544D01*
X115623423Y-42441598D01*
X115882607Y-42451783D01*
X115891921Y-42451457D01*
X116149753Y-42423220D01*
X116158930Y-42421519D01*
X116409758Y-42355481D01*
X116418574Y-42352445D01*
X116656880Y-42250062D01*
X116665167Y-42245748D01*
X116885718Y-42109266D01*
X116893268Y-42103780D01*
X116898559Y-42099301D01*
X116906997Y-42086497D01*
X116900935Y-42076145D01*
X115836812Y-41012022D01*
X115822868Y-41004408D01*
X115821035Y-41004539D01*
X115814420Y-41008790D01*
X114750497Y-42072713D01*
X114743839Y-42084906D01*
X110744500Y-42084906D01*
X110744500Y-40597211D01*
X114011775Y-40597211D01*
X114024220Y-40856288D01*
X114025356Y-40865543D01*
X114075961Y-41119945D01*
X114078449Y-41128917D01*
X114166095Y-41373033D01*
X114169895Y-41381568D01*
X114292658Y-41610042D01*
X114297666Y-41617904D01*
X114367720Y-41711716D01*
X114378979Y-41720165D01*
X114391397Y-41713393D01*
X115451978Y-40652812D01*
X115458356Y-40641132D01*
X116188408Y-40641132D01*
X116188539Y-40642965D01*
X116192790Y-40649580D01*
X117260094Y-41716884D01*
X117272474Y-41723644D01*
X117280815Y-41717400D01*
X117414832Y-41509048D01*
X117419275Y-41500864D01*
X117525807Y-41264370D01*
X117528997Y-41255605D01*
X117599402Y-41005972D01*
X117601262Y-40996830D01*
X117634187Y-40738019D01*
X117634668Y-40731733D01*
X117636987Y-40643160D01*
X117636836Y-40636851D01*
X117617501Y-40376663D01*
X117616125Y-40367457D01*
X117558878Y-40114467D01*
X117556154Y-40105556D01*
X117462143Y-39863806D01*
X117458132Y-39855397D01*
X117329422Y-39630202D01*
X117324211Y-39622476D01*
X117280996Y-39567658D01*
X117269071Y-39559187D01*
X117257537Y-39565673D01*
X116196022Y-40627188D01*
X116188408Y-40641132D01*
X115458356Y-40641132D01*
X115459592Y-40638868D01*
X115459461Y-40637035D01*
X115455210Y-40630420D01*
X114389816Y-39565026D01*
X114376507Y-39557758D01*
X114366472Y-39564878D01*
X114350937Y-39583556D01*
X114345531Y-39591135D01*
X114210965Y-39812891D01*
X114206736Y-39821192D01*
X114106432Y-40060389D01*
X114103471Y-40069239D01*
X114039628Y-40320625D01*
X114038006Y-40329822D01*
X114012020Y-40587885D01*
X114011775Y-40597211D01*
X110744500Y-40597211D01*
X110744500Y-39192689D01*
X114741102Y-39192689D01*
X114745675Y-39202465D01*
X115811188Y-40267978D01*
X115825132Y-40275592D01*
X115826965Y-40275461D01*
X115833580Y-40271210D01*
X116898349Y-39206441D01*
X116904733Y-39194751D01*
X116895321Y-39182641D01*
X116748045Y-39080471D01*
X116740010Y-39075738D01*
X116507376Y-38961016D01*
X116498743Y-38957528D01*
X116251703Y-38878450D01*
X116242643Y-38876274D01*
X115986630Y-38834580D01*
X115977343Y-38833768D01*
X115717992Y-38830373D01*
X115708681Y-38830943D01*
X115451682Y-38865919D01*
X115442546Y-38867860D01*
X115193543Y-38940439D01*
X115184800Y-38943707D01*
X114949252Y-39052296D01*
X114941097Y-39056816D01*
X114750240Y-39181947D01*
X114741102Y-39192689D01*
X110744500Y-39192689D01*
X110744500Y-27558500D01*
X110764502Y-27490379D01*
X110818158Y-27443886D01*
X110870500Y-27432500D01*
X114306056Y-27432500D01*
X114374177Y-27452502D01*
G37*
%TD.AperFunction*%
%TD*%
M02*
